<svg xmlns="http://www.w3.org/2000/svg" viewBox="0 0 218.73 42.8">
    <defs>
        <style>.cls-1{fill:#fff;}</style>
    </defs>
    <title>Zasób 27</title>
    <g id="Warstwa_2" data-name="Warstwa 2">
        <g id="Warstwa_1-2" data-name="Warstwa 1">
            <path class="cls-1"
                  d="M17.19,28.49c-2.67,0-3.82-2.66-4.75-4.75-.79-1.87-1.44-3.09-2.31-3.09a2.5,2.5,0,0,0-1.8.79,3.36,3.36,0,0,1-2.22,1,.94.94,0,1,1,0-1.87c.28,0,.57-.22,1-.58a4.58,4.58,0,0,1,3-1.3c2.23,0,3.24,2.23,4.11,4.24.93,2.17,1.65,3.6,3,3.6s2.3-2.95,3.09-5.61c.94-3.31,1.88-6.69,4.61-6.69,2.51,0,3.6,2.51,4.6,4.67s1.59,3.46,2.74,3.46a2.68,2.68,0,0,0,1.44-.73,5.42,5.42,0,0,1,3.37-1.3.94.94,0,0,1,0,1.88,3.59,3.59,0,0,0-2.22.94,4.31,4.31,0,0,1-2.59,1.07c-2.52,0-3.53-2.45-4.53-4.6S26.13,16.1,25,16.1c-1.3,0-2.09,2.81-2.74,5.26-1.16,3.61-2.17,7.13-5,7.13"/>
            <path class="cls-1"
                  d="M21.51,42.8A21.4,21.4,0,1,1,42.88,21.44,21.44,21.44,0,0,1,21.51,42.8m0-40.71A19.28,19.28,0,1,0,40.73,21.36,19.35,19.35,0,0,0,21.51,2.09"/>
            <g id="Layer1">
                <path class="cls-1"
                      d="M72.21,14.33a5.44,5.44,0,0,0-2.44.53A5,5,0,0,0,68,16.39a7.33,7.33,0,0,0-1.09,2.43A13.25,13.25,0,0,0,66.53,22a14.24,14.24,0,0,0,.33,3.22,6.78,6.78,0,0,0,1,2.37,4.37,4.37,0,0,0,1.76,1.48,6.09,6.09,0,0,0,2.56.5A13,13,0,0,0,75,29.3a28.34,28.34,0,0,0,3-.88v4c-.5.21-1,.38-1.47.53a14.67,14.67,0,0,1-1.49.35,15.23,15.23,0,0,1-1.55.21c-.53,0-1.1.07-1.71.07a11.41,11.41,0,0,1-4.53-.83,8.38,8.38,0,0,1-3.17-2.36,9.77,9.77,0,0,1-1.86-3.65A17.59,17.59,0,0,1,61.6,22a15.33,15.33,0,0,1,.69-4.72,10.66,10.66,0,0,1,2-3.69,9.22,9.22,0,0,1,3.33-2.41,11.4,11.4,0,0,1,4.55-.86,13.56,13.56,0,0,1,3.38.43,16.47,16.47,0,0,1,3.24,1.17l-1.55,3.9a22.11,22.11,0,0,0-2.55-1.05,7.63,7.63,0,0,0-2.52-.45"/>
                <path class="cls-1"
                      d="M86.35,24.61a8.28,8.28,0,0,0,.72,3.89,2.78,2.78,0,0,0,4.72,0,8.25,8.25,0,0,0,.73-3.88,8.09,8.09,0,0,0-.73-3.87,2.54,2.54,0,0,0-2.38-1.28,2.49,2.49,0,0,0-2.35,1.28,8.12,8.12,0,0,0-.71,3.87m11,0a12.53,12.53,0,0,1-.55,3.84,8,8,0,0,1-1.58,2.82A6.75,6.75,0,0,1,92.69,33a8.91,8.91,0,0,1-3.31.59A8.31,8.31,0,0,1,86.22,33a6.89,6.89,0,0,1-2.48-1.74,8.14,8.14,0,0,1-1.63-2.82,11.39,11.39,0,0,1-.59-3.84,12.17,12.17,0,0,1,.55-3.83A7.62,7.62,0,0,1,83.65,18a6.52,6.52,0,0,1,2.49-1.72,8.75,8.75,0,0,1,3.33-.59,8.07,8.07,0,0,1,3.15.59A6.84,6.84,0,0,1,95.11,18a8.16,8.16,0,0,1,1.63,2.81,11.58,11.58,0,0,1,.59,3.83"/>
                <path class="cls-1"
                      d="M108.2,29.84a3.24,3.24,0,0,0,1.42-.29,2.31,2.31,0,0,0,.95-.86,4.26,4.26,0,0,0,.55-1.45,11.79,11.79,0,0,0,.19-2V24.7a13.48,13.48,0,0,0-.16-2.23,5,5,0,0,0-.51-1.63,2.42,2.42,0,0,0-1-1,3.05,3.05,0,0,0-1.52-.34A2.29,2.29,0,0,0,106,20.84a8.55,8.55,0,0,0-.7,3.89,8.16,8.16,0,0,0,.7,3.83,2.37,2.37,0,0,0,2.21,1.28m-1.72,3.76a5,5,0,0,1-4.31-2.27,8.54,8.54,0,0,1-1.23-2.79,15,15,0,0,1-.44-3.87,15.2,15.2,0,0,1,.44-3.91,8.52,8.52,0,0,1,1.25-2.82,5.33,5.33,0,0,1,1.94-1.71,5.43,5.43,0,0,1,2.49-.57,5.62,5.62,0,0,1,1.53.19,4.94,4.94,0,0,1,1.26.54,5.63,5.63,0,0,1,1,.81,5.07,5.07,0,0,1,.78,1h.16c-.06-.41-.12-.81-.17-1.23s-.1-.72-.13-1.12-.06-.77-.06-1.11V9.2h4.72V33.29h-3.6l-.92-2.24H111a7.09,7.09,0,0,1-.74,1,4.44,4.44,0,0,1-1,.82,4.8,4.8,0,0,1-1.24.54,5.37,5.37,0,0,1-1.56.2"/>
                <path class="cls-1"
                      d="M127.64,19a2.73,2.73,0,0,0-2.08.88,4.38,4.38,0,0,0-1,2.77h6a6.42,6.42,0,0,0-.2-1.45,3.48,3.48,0,0,0-.56-1.16,2.64,2.64,0,0,0-.93-.76,2.83,2.83,0,0,0-1.3-.28m.6,14.58a10.48,10.48,0,0,1-3.42-.54,7.36,7.36,0,0,1-2.69-1.63,7.47,7.47,0,0,1-1.75-2.76,11,11,0,0,1-.63-3.91,12.57,12.57,0,0,1,.57-4,8.08,8.08,0,0,1,1.61-2.84,6.46,6.46,0,0,1,2.47-1.71,8.65,8.65,0,0,1,3.21-.57,8.92,8.92,0,0,1,3.1.51,6.3,6.3,0,0,1,2.35,1.53,6.72,6.72,0,0,1,1.49,2.47,10.16,10.16,0,0,1,.51,3.35v2.29H124.52a5.77,5.77,0,0,0,.31,1.79,3.8,3.8,0,0,0,.81,1.35,3.29,3.29,0,0,0,1.25.84,4.42,4.42,0,0,0,1.68.3,11.81,11.81,0,0,0,1.49-.09,10,10,0,0,0,1.37-.25,10.55,10.55,0,0,0,1.31-.43c.44-.17.88-.37,1.34-.6v3.66a9.71,9.71,0,0,1-1.25.55,12.71,12.71,0,0,1-1.32.38,13.17,13.17,0,0,1-1.5.22c-.54,0-1.13.07-1.77.07"/>
                <path class="cls-1"
                      d="M161.77,33.29h-5.44l-2.79-11.16c0-.15-.09-.37-.15-.65s-.12-.59-.19-.94-.15-.72-.21-1.1-.14-.76-.21-1.12-.11-.69-.16-1-.08-.55-.1-.73c0,.18-.05.43-.1.73s-.1.64-.16,1-.13.73-.2,1.11-.13.75-.2,1.1-.13.67-.19,1-.11.51-.16.68l-2.75,11.13H143.3l-5.44-22.63h4.71L145.14,23c0,.17.08.41.13.72s.12.67.2,1.06.15.81.22,1.24.15.86.23,1.27.13.8.2,1.16.1.64.14.87c0-.23.07-.52.13-.87s.11-.72.18-1.12.12-.81.2-1.23.15-.82.21-1.19.13-.69.18-1,.1-.49.13-.61l3.14-12.68h4.21l3.14,12.68c0,.12.07.32.13.61s.12.61.18,1,.14.76.21,1.19.15.83.21,1.23.13.77.19,1.12.1.64.13.87c0-.23.08-.52.13-.87s.12-.75.2-1.16.14-.84.22-1.27.15-.84.22-1.24.14-.74.2-1.06.1-.55.13-.72l2.57-12.35h4.71Z"/>
                <path class="cls-1"
                      d="M177.7,25.27l-1.56.06a6.16,6.16,0,0,0-1.59.25,2.78,2.78,0,0,0-1.05.59,2.1,2.1,0,0,0-.57.86,3.29,3.29,0,0,0-.18,1.12,1.93,1.93,0,0,0,.53,1.54,2,2,0,0,0,1.37.46,3.38,3.38,0,0,0,1.21-.22,2.82,2.82,0,0,0,1-.67,3.29,3.29,0,0,0,.64-1.08,4.51,4.51,0,0,0,.23-1.48Zm1.39,8-.91-2.35H178a10.63,10.63,0,0,1-1,1.2,4.87,4.87,0,0,1-1.11.83,5.6,5.6,0,0,1-1.36.48,8.88,8.88,0,0,1-1.74.15,5.62,5.62,0,0,1-1.95-.33,4.13,4.13,0,0,1-1.55-1,4.64,4.64,0,0,1-1-1.7,7.16,7.16,0,0,1-.37-2.44,4.73,4.73,0,0,1,1.76-4.06,9.48,9.48,0,0,1,5.27-1.45l2.76-.09v-1.3a1.93,1.93,0,0,0-.62-1.58,2.64,2.64,0,0,0-1.73-.51,7.17,7.17,0,0,0-2.17.32,13.64,13.64,0,0,0-2.13.87l-1.53-3.13A12.21,12.21,0,0,1,172.39,16a13.36,13.36,0,0,1,3.32-.41,7.27,7.27,0,0,1,4.95,1.51,5.84,5.84,0,0,1,1.73,4.62V33.29Z"/>
                <path class="cls-1"
                      d="M190.88,33.29,184.77,16h4.93l2.87,9.86c.17.59.32,1.21.45,1.84a12.24,12.24,0,0,1,.24,1.71h.09a14.47,14.47,0,0,1,.24-1.74c.13-.61.28-1.22.46-1.81L196.89,16h5l-6.12,17.31Z"/>
                <path class="cls-1"
                      d="M211.31,19a2.73,2.73,0,0,0-2.08.88,4.38,4.38,0,0,0-.95,2.77h6a5.46,5.46,0,0,0-.2-1.45,3.46,3.46,0,0,0-.55-1.16,2.64,2.64,0,0,0-.93-.76,2.83,2.83,0,0,0-1.3-.28m.6,14.58a10.44,10.44,0,0,1-3.42-.54,7.23,7.23,0,0,1-2.69-1.63,7.34,7.34,0,0,1-1.75-2.76,11,11,0,0,1-.63-3.91,12.57,12.57,0,0,1,.57-4,7.93,7.93,0,0,1,1.61-2.84,6.39,6.39,0,0,1,2.47-1.71,8.65,8.65,0,0,1,3.21-.57,8.92,8.92,0,0,1,3.1.51,6.39,6.39,0,0,1,2.35,1.53,6.79,6.79,0,0,1,1.48,2.47,9.9,9.9,0,0,1,.52,3.35v2.29H208.19a5.77,5.77,0,0,0,.31,1.79,3.8,3.8,0,0,0,.81,1.35,3.29,3.29,0,0,0,1.25.84,4.42,4.42,0,0,0,1.68.3,11.81,11.81,0,0,0,1.49-.09,10,10,0,0,0,1.37-.25,10.55,10.55,0,0,0,1.31-.43,14,14,0,0,0,1.33-.6v3.66a9.6,9.6,0,0,1-1.24.55,10.65,10.65,0,0,1-1.32.38,11.18,11.18,0,0,1-1.51.22c-.53,0-1.12.07-1.76.07"/>
            </g>
        </g>
    </g>
</svg>