<svg xmlns="http://www.w3.org/2000/svg" xmlns:xlink="http://www.w3.org/1999/xlink" viewBox="0 0 103 66.37"><defs><style>.cls-1{fill:#015bd7;}.cls-2{opacity:0.6;}.cls-3{fill:url(#linear-gradient);}.cls-4{fill:none;stroke-opacity:0.15;stroke-width:0.7px;stroke:url(#linear-gradient-2);}.cls-5{fill-rule:evenodd;fill:url(#linear-gradient-3);}</style><linearGradient id="linear-gradient" x1="304.71" y1="433.97" x2="307.53" y2="395.48" gradientTransform="translate(-240.5 -381.5)" gradientUnits="userSpaceOnUse"><stop offset="0.27" stop-color="#0083fc" stop-opacity="0.4"/><stop offset="0.86" stop-color="#64fbc1" stop-opacity="0.9"/></linearGradient><linearGradient id="linear-gradient-2" x1="339.88" y1="411.56" x2="267.83" y2="418.32" gradientTransform="translate(-240.5 -381.5)" gradientUnits="userSpaceOnUse"><stop offset="0" stop-color="#fff"/><stop offset="1" stop-color="#fff" stop-opacity="0.18"/></linearGradient><linearGradient id="linear-gradient-3" x1="334.65" y1="414.44" x2="306.45" y2="414.96" xlink:href="#linear-gradient-2"/></defs><g id="Layer_2" data-name="Layer 2"><g id="Layer_1-2" data-name="Layer 1"><path class="cls-1" d="M13.29,8.31H66.45A1.66,1.66,0,0,1,68.11,10V34.89a1.66,1.66,0,0,1-1.66,1.66H13.29a1.67,1.67,0,0,1-1.66-1.66V10A1.66,1.66,0,0,1,13.29,8.31Z"/><g class="cls-2"><path class="cls-1" d="M1.66,0H43.19a1.66,1.66,0,0,1,1.66,1.66V19.94a1.66,1.66,0,0,1-1.66,1.66H1.66A1.67,1.67,0,0,1,0,19.94V1.66A1.67,1.67,0,0,1,1.66,0Z"/></g><path class="cls-3" d="M29.9,16.61h71.44A1.67,1.67,0,0,1,103,18.27V48.18a1.67,1.67,0,0,1-1.66,1.66H29.9a1.67,1.67,0,0,1-1.66-1.66V18.27A1.67,1.67,0,0,1,29.9,16.61Z"/><path class="cls-4" d="M29.9,17h71.44a1.27,1.27,0,0,1,1.24,1.24V48.18a1.27,1.27,0,0,1-1.24,1.24H29.9a1.27,1.27,0,0,1-1.24-1.24V18.27A1.27,1.27,0,0,1,29.9,17Z"/><path class="cls-5" d="M78,6.23a2.07,2.07,0,0,0-2.08-2.08H66.45V0h9.47a6.25,6.25,0,0,1,5,2.49,6.28,6.28,0,0,1,5-2.49h9.47V4.15H85.89a2.07,2.07,0,0,0-2.08,2.08V60.14a2.07,2.07,0,0,0,2.08,2.08h9.47v4.15H85.89a6.28,6.28,0,0,1-5-2.49,6.25,6.25,0,0,1-5,2.49H66.45V62.22h9.47A2.07,2.07,0,0,0,78,60.14Z"/></g></g></svg>