<svg width="100" height="26" viewBox="0 0 100 26" fill="none" xmlns="http://www.w3.org/2000/svg">
<path d="M71.554 10.9963V13.2873H70.118V14.7897H71.554V19.8947C71.554 21.6379 72.3426 22.3351 74.3265 22.3351C74.6751 22.3351 75.0071 22.2936 75.2977 22.2438V20.758C75.0486 20.7829 74.8909 20.7995 74.617 20.7995C73.7288 20.7995 73.3387 20.3845 73.3387 19.4382V14.7897H75.2977V13.2873H73.3387V10.9963H71.554Z" fill="#8EA1B8"/>
<path d="M71.554 10.9963V13.2873H70.118V14.7897H71.554V19.8947C71.554 21.6379 72.3426 22.3351 74.3265 22.3351C74.6751 22.3351 75.0071 22.2936 75.2977 22.2438V20.758C75.0486 20.7829 74.8909 20.7995 74.617 20.7995C73.7288 20.7995 73.3387 20.3845 73.3387 19.4382V14.7897H75.2977V13.2873H73.3387V10.9963H71.554Z" fill="black" fill-opacity="0.2"/>
<path d="M80.3515 22.4596C82.9912 22.4596 84.6098 20.6916 84.6098 17.7614C84.6098 14.8478 82.9829 13.0715 80.3515 13.0715C77.7119 13.0715 76.0849 14.8478 76.0849 17.7614C76.0849 20.6916 77.7036 22.4596 80.3515 22.4596ZM80.3515 20.8742C78.7993 20.8742 77.9277 19.737 77.9277 17.7614C77.9277 15.8024 78.7993 14.6569 80.3515 14.6569C81.8955 14.6569 82.7753 15.8024 82.7753 17.7614C82.7753 19.7287 81.8955 20.8742 80.3515 20.8742Z" fill="#8EA1B8"/>
<path d="M80.3515 22.4596C82.9912 22.4596 84.6098 20.6916 84.6098 17.7614C84.6098 14.8478 82.9829 13.0715 80.3515 13.0715C77.7119 13.0715 76.0849 14.8478 76.0849 17.7614C76.0849 20.6916 77.7036 22.4596 80.3515 22.4596ZM80.3515 20.8742C78.7993 20.8742 77.9277 19.737 77.9277 17.7614C77.9277 15.8024 78.7993 14.6569 80.3515 14.6569C81.8955 14.6569 82.7753 15.8024 82.7753 17.7614C82.7753 19.7287 81.8955 20.8742 80.3515 20.8742Z" fill="black" fill-opacity="0.2"/>
<path d="M85.9947 22.2853H87.7794V16.9479C87.7794 15.6779 88.734 14.8229 90.087 14.8229C90.4024 14.8229 90.9337 14.881 91.0831 14.9308V13.1711C90.8922 13.1213 90.5518 13.0964 90.2862 13.0964C89.1075 13.0964 88.1031 13.7438 87.8458 14.632H87.713V13.2458H85.9947V22.2853Z" fill="#8EA1B8"/>
<path d="M85.9947 22.2853H87.7794V16.9479C87.7794 15.6779 88.734 14.8229 90.087 14.8229C90.4024 14.8229 90.9337 14.881 91.0831 14.9308V13.1711C90.8922 13.1213 90.5518 13.0964 90.2862 13.0964C89.1075 13.0964 88.1031 13.7438 87.8458 14.632H87.713V13.2458H85.9947V22.2853Z" fill="black" fill-opacity="0.2"/>
<path d="M95.5144 14.5905C96.8342 14.5905 97.6975 15.5119 97.739 16.9313H93.1736C93.2732 15.5202 94.1945 14.5905 95.5144 14.5905ZM97.7307 19.8449C97.3987 20.5505 96.6599 20.9406 95.5808 20.9406C94.153 20.9406 93.2317 19.9362 93.1736 18.3508V18.2512H99.5569V17.6286C99.5569 14.7897 98.0378 13.0715 95.5227 13.0715C92.9743 13.0715 91.3557 14.9059 91.3557 17.7946C91.3557 20.6833 92.9411 22.4596 95.531 22.4596C97.5979 22.4596 99.0422 21.4636 99.4489 19.8449H97.7307Z" fill="#8EA1B8"/>
<path d="M95.5144 14.5905C96.8342 14.5905 97.6975 15.5119 97.739 16.9313H93.1736C93.2732 15.5202 94.1945 14.5905 95.5144 14.5905ZM97.7307 19.8449C97.3987 20.5505 96.6599 20.9406 95.5808 20.9406C94.153 20.9406 93.2317 19.9362 93.1736 18.3508V18.2512H99.5569V17.6286C99.5569 14.7897 98.0378 13.0715 95.5227 13.0715C92.9743 13.0715 91.3557 14.9059 91.3557 17.7946C91.3557 20.6833 92.9411 22.4596 95.531 22.4596C97.5979 22.4596 99.0422 21.4636 99.4489 19.8449H97.7307Z" fill="black" fill-opacity="0.2"/>
<path d="M59.8504 18.9472C59.9881 21.1669 61.8378 22.5865 64.591 22.5865C67.5334 22.5865 69.3745 21.098 69.3745 18.7235C69.3745 16.8565 68.3249 15.8241 65.7782 15.2304L64.4103 14.8949C62.7928 14.5164 62.139 14.0088 62.139 13.1226C62.139 12.0041 63.1542 11.2728 64.677 11.2728C66.1224 11.2728 67.1204 11.9869 67.3011 13.1312H69.1766C69.0648 11.0405 67.2236 9.56934 64.7028 9.56934C61.9927 9.56934 60.186 11.0405 60.186 13.2516C60.186 15.0756 61.2098 16.1596 63.4553 16.6844L65.0555 17.0716C66.6988 17.4588 67.4215 18.0266 67.4215 18.973C67.4215 20.0742 66.2859 20.8744 64.7372 20.8744C63.0767 20.8744 61.9239 20.1258 61.7604 18.9472H59.8504Z" fill="#8EA1B8"/>
<path d="M59.8504 18.9472C59.9881 21.1669 61.8378 22.5865 64.591 22.5865C67.5334 22.5865 69.3745 21.098 69.3745 18.7235C69.3745 16.8565 68.3249 15.8241 65.7782 15.2304L64.4103 14.8949C62.7928 14.5164 62.139 14.0088 62.139 13.1226C62.139 12.0041 63.1542 11.2728 64.677 11.2728C66.1224 11.2728 67.1204 11.9869 67.3011 13.1312H69.1766C69.0648 11.0405 67.2236 9.56934 64.7028 9.56934C61.9927 9.56934 60.186 11.0405 60.186 13.2516C60.186 15.0756 61.2098 16.1596 63.4553 16.6844L65.0555 17.0716C66.6988 17.4588 67.4215 18.0266 67.4215 18.973C67.4215 20.0742 66.2859 20.8744 64.7372 20.8744C63.0767 20.8744 61.9239 20.1258 61.7604 18.9472H59.8504Z" fill="black" fill-opacity="0.2"/>
<path d="M41.3631 13.0964C40.1346 13.0964 39.0721 13.7106 38.5242 14.7399H38.3914V13.2458H36.6731V25.2902H38.4578V20.9157H38.5989C39.0721 21.8703 40.0931 22.4347 41.3797 22.4347C43.6624 22.4347 45.115 20.6335 45.115 17.7614C45.115 14.8893 43.6624 13.0964 41.3631 13.0964ZM40.8567 20.8327C39.3626 20.8327 38.4246 19.654 38.4246 17.7697C38.4246 15.8771 39.3626 14.6984 40.865 14.6984C42.3758 14.6984 43.2806 15.8522 43.2806 17.7614C43.2806 19.6789 42.3758 20.8327 40.8567 20.8327Z" fill="#8EA1B8"/>
<path d="M41.3631 13.0964C40.1346 13.0964 39.0721 13.7106 38.5242 14.7399H38.3914V13.2458H36.6731V25.2902H38.4578V20.9157H38.5989C39.0721 21.8703 40.0931 22.4347 41.3797 22.4347C43.6624 22.4347 45.115 20.6335 45.115 17.7614C45.115 14.8893 43.6624 13.0964 41.3631 13.0964ZM40.8567 20.8327C39.3626 20.8327 38.4246 19.654 38.4246 17.7697C38.4246 15.8771 39.3626 14.6984 40.865 14.6984C42.3758 14.6984 43.2806 15.8522 43.2806 17.7614C43.2806 19.6789 42.3758 20.8327 40.8567 20.8327Z" fill="black" fill-opacity="0.2"/>
<path d="M51.3599 13.0964C50.1314 13.0964 49.0689 13.7106 48.521 14.7399H48.3882V13.2458H46.6699V25.2902H48.4546V20.9157H48.5957C49.0689 21.8703 50.0899 22.4347 51.3765 22.4347C53.6592 22.4347 55.1118 20.6335 55.1118 17.7614C55.1118 14.8893 53.6592 13.0964 51.3599 13.0964ZM50.8535 20.8327C49.3594 20.8327 48.4214 19.654 48.4214 17.7697C48.4214 15.8771 49.3594 14.6984 50.8618 14.6984C52.3726 14.6984 53.2774 15.8522 53.2774 17.7614C53.2774 19.6789 52.3726 20.8327 50.8535 20.8327Z" fill="#8EA1B8"/>
<path d="M51.3599 13.0964C50.1314 13.0964 49.0689 13.7106 48.521 14.7399H48.3882V13.2458H46.6699V25.2902H48.4546V20.9157H48.5957C49.0689 21.8703 50.0899 22.4347 51.3765 22.4347C53.6592 22.4347 55.1118 20.6335 55.1118 17.7614C55.1118 14.8893 53.6592 13.0964 51.3599 13.0964ZM50.8535 20.8327C49.3594 20.8327 48.4214 19.654 48.4214 17.7697C48.4214 15.8771 49.3594 14.6984 50.8618 14.6984C52.3726 14.6984 53.2774 15.8522 53.2774 17.7614C53.2774 19.6789 52.3726 20.8327 50.8535 20.8327Z" fill="black" fill-opacity="0.2"/>
<path d="M33.4711 22.2853H35.5188L31.0363 9.87046H28.9629L24.4805 22.2853H26.4593L27.6035 18.9902H32.3355L33.4711 22.2853ZM29.9007 12.1246H30.0469L31.8451 17.3727H28.0939L29.9007 12.1246Z" fill="#8EA1B8"/>
<path d="M33.4711 22.2853H35.5188L31.0363 9.87046H28.9629L24.4805 22.2853H26.4593L27.6035 18.9902H32.3355L33.4711 22.2853ZM29.9007 12.1246H30.0469L31.8451 17.3727H28.0939L29.9007 12.1246Z" fill="black" fill-opacity="0.2"/>
<path d="M25.6797 0.506104V6.49512H27.842C29.6267 6.49512 30.6602 5.39526 30.6602 3.48193C30.6602 1.59766 29.6184 0.506104 27.842 0.506104H25.6797ZM26.6094 1.35278H27.7383C28.9792 1.35278 29.7139 2.14136 29.7139 3.49438C29.7139 4.86816 28.9917 5.64844 27.7383 5.64844H26.6094V1.35278Z" fill="#8EA1B8"/>
<path d="M25.6797 0.506104V6.49512H27.842C29.6267 6.49512 30.6602 5.39526 30.6602 3.48193C30.6602 1.59766 29.6184 0.506104 27.842 0.506104H25.6797ZM26.6094 1.35278H27.7383C28.9792 1.35278 29.7139 2.14136 29.7139 3.49438C29.7139 4.86816 28.9917 5.64844 27.7383 5.64844H26.6094V1.35278Z" fill="black" fill-opacity="0.2"/>
<path d="M33.8252 6.58228C35.1451 6.58228 35.9544 5.69824 35.9544 4.23315C35.9544 2.77637 35.1409 1.88818 33.8252 1.88818C32.5054 1.88818 31.6919 2.77637 31.6919 4.23315C31.6919 5.69824 32.5013 6.58228 33.8252 6.58228ZM33.8252 5.78955C33.0491 5.78955 32.6133 5.22095 32.6133 4.23315C32.6133 3.25366 33.0491 2.68091 33.8252 2.68091C34.5972 2.68091 35.0372 3.25366 35.0372 4.23315C35.0372 5.2168 34.5972 5.78955 33.8252 5.78955Z" fill="#8EA1B8"/>
<path d="M33.8252 6.58228C35.1451 6.58228 35.9544 5.69824 35.9544 4.23315C35.9544 2.77637 35.1409 1.88818 33.8252 1.88818C32.5054 1.88818 31.6919 2.77637 31.6919 4.23315C31.6919 5.69824 32.5013 6.58228 33.8252 6.58228ZM33.8252 5.78955C33.0491 5.78955 32.6133 5.22095 32.6133 4.23315C32.6133 3.25366 33.0491 2.68091 33.8252 2.68091C34.5972 2.68091 35.0372 3.25366 35.0372 4.23315C35.0372 5.2168 34.5972 5.78955 33.8252 5.78955Z" fill="black" fill-opacity="0.2"/>
<path d="M42.8465 1.97534H41.9542L41.149 5.42432H41.0785L40.1488 1.97534H39.2938L38.3641 5.42432H38.2977L37.4884 1.97534H36.5836L37.8287 6.49512H38.7459L39.6756 3.1665H39.7462L40.68 6.49512H41.6056L42.8465 1.97534Z" fill="#8EA1B8"/>
<path d="M42.8465 1.97534H41.9542L41.149 5.42432H41.0785L40.1488 1.97534H39.2938L38.3641 5.42432H38.2977L37.4884 1.97534H36.5836L37.8287 6.49512H38.7459L39.6756 3.1665H39.7462L40.68 6.49512H41.6056L42.8465 1.97534Z" fill="black" fill-opacity="0.2"/>
<path d="M43.8742 6.49512H44.7665V3.85132C44.7665 3.14575 45.1857 2.70581 45.8456 2.70581C46.5055 2.70581 46.8209 3.06689 46.8209 3.79321V6.49512H47.7133V3.56909C47.7133 2.49414 47.1571 1.88818 46.1486 1.88818C45.4679 1.88818 45.0197 2.19116 44.7997 2.69336H44.7333V1.97534H43.8742V6.49512Z" fill="#8EA1B8"/>
<path d="M43.8742 6.49512H44.7665V3.85132C44.7665 3.14575 45.1857 2.70581 45.8456 2.70581C46.5055 2.70581 46.8209 3.06689 46.8209 3.79321V6.49512H47.7133V3.56909C47.7133 2.49414 47.1571 1.88818 46.1486 1.88818C45.4679 1.88818 45.0197 2.19116 44.7997 2.69336H44.7333V1.97534H43.8742V6.49512Z" fill="black" fill-opacity="0.2"/>
<path d="M49.1186 6.49512H50.0109V0.211426H49.1186V6.49512Z" fill="#8EA1B8"/>
<path d="M49.1186 6.49512H50.0109V0.211426H49.1186V6.49512Z" fill="black" fill-opacity="0.2"/>
<path d="M53.3669 6.58228C54.6868 6.58228 55.4961 5.69824 55.4961 4.23315C55.4961 2.77637 54.6826 1.88818 53.3669 1.88818C52.0471 1.88818 51.2336 2.77637 51.2336 4.23315C51.2336 5.69824 52.043 6.58228 53.3669 6.58228ZM53.3669 5.78955C52.5908 5.78955 52.155 5.22095 52.155 4.23315C52.155 3.25366 52.5908 2.68091 53.3669 2.68091C54.1389 2.68091 54.5789 3.25366 54.5789 4.23315C54.5789 5.2168 54.1389 5.78955 53.3669 5.78955Z" fill="#8EA1B8"/>
<path d="M53.3669 6.58228C54.6868 6.58228 55.4961 5.69824 55.4961 4.23315C55.4961 2.77637 54.6826 1.88818 53.3669 1.88818C52.0471 1.88818 51.2336 2.77637 51.2336 4.23315C51.2336 5.69824 52.043 6.58228 53.3669 6.58228ZM53.3669 5.78955C52.5908 5.78955 52.155 5.22095 52.155 4.23315C52.155 3.25366 52.5908 2.68091 53.3669 2.68091C54.1389 2.68091 54.5789 3.25366 54.5789 4.23315C54.5789 5.2168 54.1389 5.78955 53.3669 5.78955Z" fill="black" fill-opacity="0.2"/>
<path d="M58.1548 5.8186C57.6692 5.8186 57.3165 5.58203 57.3165 5.17529C57.3165 4.77686 57.5987 4.56519 58.2212 4.52368L59.3252 4.45312V4.83081C59.3252 5.39111 58.8272 5.8186 58.1548 5.8186ZM57.9266 6.56982C58.5201 6.56982 59.014 6.3125 59.2837 5.86011H59.3543V6.49512H60.2134V3.40723C60.2134 2.45264 59.5743 1.88818 58.4412 1.88818C57.4161 1.88818 56.6856 2.38623 56.5943 3.16235H57.4576C57.5572 2.84277 57.9017 2.66016 58.3997 2.66016C59.0098 2.66016 59.3252 2.92993 59.3252 3.40723V3.79736L58.1009 3.86792C57.0259 3.93433 56.42 4.40332 56.42 5.2168C56.42 6.04272 57.055 6.56982 57.9266 6.56982Z" fill="#8EA1B8"/>
<path d="M58.1548 5.8186C57.6692 5.8186 57.3165 5.58203 57.3165 5.17529C57.3165 4.77686 57.5987 4.56519 58.2212 4.52368L59.3252 4.45312V4.83081C59.3252 5.39111 58.8272 5.8186 58.1548 5.8186ZM57.9266 6.56982C58.5201 6.56982 59.014 6.3125 59.2837 5.86011H59.3543V6.49512H60.2134V3.40723C60.2134 2.45264 59.5743 1.88818 58.4412 1.88818C57.4161 1.88818 56.6856 2.38623 56.5943 3.16235H57.4576C57.5572 2.84277 57.9017 2.66016 58.3997 2.66016C59.0098 2.66016 59.3252 2.92993 59.3252 3.40723V3.79736L58.1009 3.86792C57.0259 3.93433 56.42 4.40332 56.42 5.2168C56.42 6.04272 57.055 6.56982 57.9266 6.56982Z" fill="black" fill-opacity="0.2"/>
<path d="M63.2416 6.56982C63.8641 6.56982 64.3912 6.27515 64.661 5.78125H64.7315V6.49512H65.5865V0.211426H64.6942V2.69336H64.6278C64.3829 2.19531 63.86 1.90063 63.2416 1.90063C62.1002 1.90063 61.3656 2.80542 61.3656 4.23315C61.3656 5.66504 62.0919 6.56982 63.2416 6.56982ZM63.4947 2.70166C64.2418 2.70166 64.7108 3.29517 64.7108 4.2373C64.7108 5.18359 64.2459 5.7688 63.4947 5.7688C62.7394 5.7688 62.287 5.19189 62.287 4.23315C62.287 3.28271 62.7435 2.70166 63.4947 2.70166Z" fill="#8EA1B8"/>
<path d="M63.2416 6.56982C63.8641 6.56982 64.3912 6.27515 64.661 5.78125H64.7315V6.49512H65.5865V0.211426H64.6942V2.69336H64.6278C64.3829 2.19531 63.86 1.90063 63.2416 1.90063C62.1002 1.90063 61.3656 2.80542 61.3656 4.23315C61.3656 5.66504 62.0919 6.56982 63.2416 6.56982ZM63.4947 2.70166C64.2418 2.70166 64.7108 3.29517 64.7108 4.2373C64.7108 5.18359 64.2459 5.7688 63.4947 5.7688C62.7394 5.7688 62.287 5.19189 62.287 4.23315C62.287 3.28271 62.7435 2.70166 63.4947 2.70166Z" fill="black" fill-opacity="0.2"/>
<path d="M71.373 6.58228C72.6928 6.58228 73.5021 5.69824 73.5021 4.23315C73.5021 2.77637 72.6887 1.88818 71.373 1.88818C70.0532 1.88818 69.2397 2.77637 69.2397 4.23315C69.2397 5.69824 70.049 6.58228 71.373 6.58228ZM71.373 5.78955C70.5969 5.78955 70.1611 5.22095 70.1611 4.23315C70.1611 3.25366 70.5969 2.68091 71.373 2.68091C72.145 2.68091 72.5849 3.25366 72.5849 4.23315C72.5849 5.2168 72.145 5.78955 71.373 5.78955Z" fill="#8EA1B8"/>
<path d="M71.373 6.58228C72.6928 6.58228 73.5021 5.69824 73.5021 4.23315C73.5021 2.77637 72.6887 1.88818 71.373 1.88818C70.0532 1.88818 69.2397 2.77637 69.2397 4.23315C69.2397 5.69824 70.049 6.58228 71.373 6.58228ZM71.373 5.78955C70.5969 5.78955 70.1611 5.22095 70.1611 4.23315C70.1611 3.25366 70.5969 2.68091 71.373 2.68091C72.145 2.68091 72.5849 3.25366 72.5849 4.23315C72.5849 5.2168 72.145 5.78955 71.373 5.78955Z" fill="black" fill-opacity="0.2"/>
<path d="M74.6833 6.49512H75.5757V3.85132C75.5757 3.14575 75.9949 2.70581 76.6548 2.70581C77.3147 2.70581 77.6301 3.06689 77.6301 3.79321V6.49512H78.5225V3.56909C78.5225 2.49414 77.9663 1.88818 76.9578 1.88818C76.2771 1.88818 75.8289 2.19116 75.6089 2.69336H75.5425V1.97534H74.6833V6.49512Z" fill="#8EA1B8"/>
<path d="M74.6833 6.49512H75.5757V3.85132C75.5757 3.14575 75.9949 2.70581 76.6548 2.70581C77.3147 2.70581 77.6301 3.06689 77.6301 3.79321V6.49512H78.5225V3.56909C78.5225 2.49414 77.9663 1.88818 76.9578 1.88818C76.2771 1.88818 75.8289 2.19116 75.6089 2.69336H75.5425V1.97534H74.6833V6.49512Z" fill="black" fill-opacity="0.2"/>
<path d="M82.6322 0.850586V1.99609H81.9142V2.74731H82.6322V5.2998C82.6322 6.17139 83.0265 6.52002 84.0184 6.52002C84.1927 6.52002 84.3587 6.49927 84.504 6.47437V5.73145C84.3795 5.7439 84.3006 5.7522 84.1637 5.7522C83.7196 5.7522 83.5245 5.54468 83.5245 5.07153V2.74731H84.504V1.99609H83.5245V0.850586H82.6322Z" fill="#8EA1B8"/>
<path d="M82.6322 0.850586V1.99609H81.9142V2.74731H82.6322V5.2998C82.6322 6.17139 83.0265 6.52002 84.0184 6.52002C84.1927 6.52002 84.3587 6.49927 84.504 6.47437V5.73145C84.3795 5.7439 84.3006 5.7522 84.1637 5.7522C83.7196 5.7522 83.5245 5.54468 83.5245 5.07153V2.74731H84.504V1.99609H83.5245V0.850586H82.6322Z" fill="black" fill-opacity="0.2"/>
<path d="M85.7018 6.49512H86.5941V3.85547C86.5941 3.17065 87.0009 2.70996 87.7313 2.70996C88.3622 2.70996 88.6984 3.0752 88.6984 3.79736V6.49512H89.5907V3.57739C89.5907 2.50244 88.9972 1.89233 88.0343 1.89233C87.3537 1.89233 86.8764 2.19531 86.6564 2.70166H86.5858V0.211426H85.7018V6.49512Z" fill="#8EA1B8"/>
<path d="M85.7018 6.49512H86.5941V3.85547C86.5941 3.17065 87.0009 2.70996 87.7313 2.70996C88.3622 2.70996 88.6984 3.0752 88.6984 3.79736V6.49512H89.5907V3.57739C89.5907 2.50244 88.9972 1.89233 88.0343 1.89233C87.3537 1.89233 86.8764 2.19531 86.6564 2.70166H86.5858V0.211426H85.7018V6.49512Z" fill="black" fill-opacity="0.2"/>
<path d="M92.8098 2.64771C93.4697 2.64771 93.9013 3.1084 93.9221 3.81812H91.6394C91.6892 3.11255 92.1498 2.64771 92.8098 2.64771ZM93.9179 5.2749C93.7519 5.62769 93.3825 5.82275 92.843 5.82275C92.1291 5.82275 91.6684 5.32056 91.6394 4.52783V4.47803H94.831V4.16675C94.831 2.74731 94.0715 1.88818 92.8139 1.88818C91.5397 1.88818 90.7304 2.80542 90.7304 4.24976C90.7304 5.69409 91.5231 6.58228 92.8181 6.58228C93.8515 6.58228 94.5737 6.08423 94.777 5.2749H93.9179Z" fill="#8EA1B8"/>
<path d="M92.8098 2.64771C93.4697 2.64771 93.9013 3.1084 93.9221 3.81812H91.6394C91.6892 3.11255 92.1498 2.64771 92.8098 2.64771ZM93.9179 5.2749C93.7519 5.62769 93.3825 5.82275 92.843 5.82275C92.1291 5.82275 91.6684 5.32056 91.6394 4.52783V4.47803H94.831V4.16675C94.831 2.74731 94.0715 1.88818 92.8139 1.88818C91.5397 1.88818 90.7304 2.80542 90.7304 4.24976C90.7304 5.69409 91.5231 6.58228 92.8181 6.58228C93.8515 6.58228 94.5737 6.08423 94.777 5.2749H93.9179Z" fill="black" fill-opacity="0.2"/>
<path d="M14.7973 12.0965C14.819 10.4155 15.7217 8.82488 17.1539 7.94441C16.2504 6.65409 14.7371 5.83599 13.1627 5.78673C11.4835 5.61047 9.85552 6.79156 8.99981 6.79156C8.12754 6.79156 6.81004 5.80423 5.39131 5.83342C3.54206 5.89317 1.81809 6.94455 0.918393 8.56129C-1.01561 11.9097 0.426982 16.8308 2.27959 19.5374C3.20649 20.8627 4.28977 22.3432 5.70722 22.2907C7.09428 22.2331 7.61232 21.4062 9.28662 21.4062C10.9454 21.4062 11.4314 22.2907 12.8776 22.2573C14.366 22.2331 15.3038 20.9261 16.1981 19.5882C16.8641 18.6438 17.3766 17.6001 17.7166 16.4956C15.9674 15.7558 14.7994 13.9956 14.7973 12.0965Z" fill="#8EA1B8"/>
<path d="M14.7973 12.0965C14.819 10.4155 15.7217 8.82488 17.1539 7.94441C16.2504 6.65409 14.7371 5.83599 13.1627 5.78673C11.4835 5.61047 9.85552 6.79156 8.99981 6.79156C8.12754 6.79156 6.81004 5.80423 5.39131 5.83342C3.54206 5.89317 1.81809 6.94455 0.918393 8.56129C-1.01561 11.9097 0.426982 16.8308 2.27959 19.5374C3.20649 20.8627 4.28977 22.3432 5.70722 22.2907C7.09428 22.2331 7.61232 21.4062 9.28662 21.4062C10.9454 21.4062 11.4314 22.2907 12.8776 22.2573C14.366 22.2331 15.3038 20.9261 16.1981 19.5882C16.8641 18.6438 17.3766 17.6001 17.7166 16.4956C15.9674 15.7558 14.7994 13.9956 14.7973 12.0965Z" fill="black" fill-opacity="0.2"/>
<path d="M12.0656 4.00673C12.8772 3.03252 13.277 1.78035 13.1802 0.516113C11.9403 0.646334 10.7951 1.23889 9.97259 2.17572C9.1683 3.09105 8.74975 4.3212 8.82888 5.53711C10.0692 5.54988 11.2885 4.97339 12.0656 4.00673Z" fill="#8EA1B8"/>
<path d="M12.0656 4.00673C12.8772 3.03252 13.277 1.78035 13.1802 0.516113C11.9403 0.646334 10.7951 1.23889 9.97259 2.17572C9.1683 3.09105 8.74975 4.3212 8.82888 5.53711C10.0692 5.54988 11.2885 4.97339 12.0656 4.00673Z" fill="black" fill-opacity="0.2"/>
</svg>
