<svg width="18" height="12" viewBox="0 0 18 12" fill="none" xmlns="http://www.w3.org/2000/svg">
<path d="M15.5196 1.54726C14.3269 0.593135 12.8957 0.116071 11.385 0.0365601L11.1465 0.275092C12.4981 0.593135 13.6908 1.22922 14.804 2.10384C13.4523 1.38824 11.9416 0.911178 10.3514 0.752156C9.87429 0.672646 9.47674 0.672646 8.99967 0.672646C8.52261 0.672646 8.12506 0.672646 7.64799 0.752156C6.05778 0.911178 4.54707 1.38824 3.19539 2.10384C4.30854 1.22922 5.5012 0.593135 6.85289 0.275092L6.61435 0.0365601C5.10365 0.116071 3.67246 0.593135 2.4798 1.54726C1.12811 4.09161 0.412519 6.95399 0.333008 9.89589C1.52567 11.1681 3.19539 11.9632 4.94463 11.9632C4.94463 11.9632 5.5012 11.3271 5.89876 10.7705C4.86512 10.532 3.91099 9.9754 3.2749 9.10078C3.83148 9.41882 4.38805 9.73687 4.94463 9.9754C5.66022 10.2934 6.37582 10.4525 7.09142 10.6115C7.7275 10.691 8.36359 10.7705 8.99967 10.7705C9.63576 10.7705 10.2718 10.691 10.9079 10.6115C11.6235 10.4525 12.3391 10.2934 13.0547 9.9754C13.6113 9.73687 14.1679 9.41882 14.7244 9.10078C14.0884 9.9754 13.1342 10.532 12.1006 10.7705C12.4981 11.3271 13.0547 11.9632 13.0547 11.9632C14.804 11.9632 16.4737 11.1681 17.6663 9.89589C17.5868 6.95399 16.8712 4.09161 15.5196 1.54726ZM6.37582 8.46469C5.58071 8.46469 4.86512 7.7491 4.86512 6.87448C4.86512 5.99986 5.58071 5.28427 6.37582 5.28427C7.17093 5.28427 7.88652 5.99986 7.88652 6.87448C7.88652 7.7491 7.17093 8.46469 6.37582 8.46469ZM11.6235 8.46469C10.8284 8.46469 10.1128 7.7491 10.1128 6.87448C10.1128 5.99986 10.8284 5.28427 11.6235 5.28427C12.4186 5.28427 13.1342 5.99986 13.1342 6.87448C13.1342 7.7491 12.4186 8.46469 11.6235 8.46469Z" fill="white"/>
</svg>
