<svg width="19" height="21" viewBox="0 0 19 21" fill="none" xmlns="http://www.w3.org/2000/svg">
<path fill-rule="evenodd" clip-rule="evenodd" d="M14.0206 20.3621C12.7544 20.774 11.4031 20.9966 10.0001 20.9966C8.59615 20.9966 7.24396 20.7737 5.97701 20.3613C6.56227 20.4314 6.77853 20.0504 6.77853 19.7214C6.77853 19.5782 6.77608 19.3256 6.77281 18.9876C6.76903 18.5966 6.76414 18.0913 6.76065 17.5091C3.14421 18.2952 2.38128 15.7651 2.38128 15.7651C1.79059 14.2626 0.938276 13.8625 0.938276 13.8625C-0.242286 13.0551 1.02765 13.0715 1.02765 13.0715C2.33171 13.1634 3.01828 14.4122 3.01828 14.4122C4.17853 16.4002 6.06109 15.8262 6.80209 15.4927C6.9199 14.6521 7.25628 14.0787 7.62759 13.7536C4.74078 13.4252 1.70609 12.3096 1.70609 7.32474C1.70609 5.90426 2.21228 4.74333 3.04428 3.83346C2.91021 3.50425 2.46415 2.18216 3.17103 0.390967C3.17103 0.390967 4.26303 0.0413118 6.74603 1.72439C7.78359 1.43568 8.89509 1.29193 10.0009 1.28606C11.1051 1.29173 12.2174 1.43568 13.2558 1.72439C15.7372 0.0413118 16.8267 0.390967 16.8267 0.390967C17.536 2.18216 17.09 3.50425 16.9559 3.83346C17.7895 4.74333 18.2925 5.90426 18.2925 7.32474C18.2925 12.3218 15.2529 13.4219 12.3572 13.7439C12.8235 14.1455 13.2395 14.939 13.2395 16.153C13.2395 17.3159 13.2323 18.3283 13.2274 18.9992C13.2251 19.3316 13.2233 19.5801 13.2233 19.7216C13.2233 20.0521 13.4343 20.4339 14.0206 20.3621Z" fill="white"/>
</svg>
