<svg width="116" height="29" viewBox="0 0 116 29" fill="none" xmlns="http://www.w3.org/2000/svg">
<path d="M58.1633 15.8856C55.8113 15.8856 53.8943 17.6746 53.8943 20.1386C53.8943 22.5876 55.8113 24.3916 58.1633 24.3916C60.5163 24.3916 62.4333 22.5876 62.4333 20.1386C62.4323 17.6746 60.5153 15.8856 58.1633 15.8856ZM58.1633 22.7176C56.8743 22.7176 55.7633 21.6546 55.7633 20.1396C55.7633 18.6086 56.8753 17.5616 58.1633 17.5616C59.4523 17.5616 60.5633 18.6086 60.5633 20.1396C60.5633 21.6536 59.4523 22.7176 58.1633 22.7176ZM48.8493 15.8856C46.4973 15.8856 44.5803 17.6746 44.5803 20.1386C44.5803 22.5876 46.4973 24.3916 48.8493 24.3916C51.2023 24.3916 53.1193 22.5876 53.1193 20.1386C53.1193 17.6746 51.2023 15.8856 48.8493 15.8856ZM48.8493 22.7176C47.5603 22.7176 46.4493 21.6546 46.4493 20.1396C46.4493 18.6086 47.5613 17.5616 48.8493 17.5616C50.1383 17.5616 51.2493 18.6086 51.2493 20.1396C51.2503 21.6536 50.1383 22.7176 48.8493 22.7176ZM37.7713 17.1916V18.9956H42.0893C41.9603 20.0106 41.6223 20.7516 41.1063 21.2666C40.4783 21.8946 39.4953 22.5876 37.7713 22.5876C35.1133 22.5876 33.0353 20.4446 33.0353 17.7866C33.0353 15.1286 35.1133 12.9856 37.7713 12.9856C39.2053 12.9856 40.2523 13.5496 41.0253 14.2746L42.2983 13.0016C41.2183 11.9706 39.7853 11.1816 37.7713 11.1816C34.1303 11.1816 31.0693 14.1456 31.0693 17.7866C31.0693 21.4276 34.1303 24.3916 37.7713 24.3916C39.7363 24.3916 41.2193 23.7466 42.3783 22.5386C43.5703 21.3466 43.9413 19.6706 43.9413 18.3176C43.9413 17.8996 43.9093 17.5126 43.8443 17.1906H37.7713V17.1916ZM83.0793 18.5926C82.7253 17.6426 81.6453 15.8856 79.4383 15.8856C77.2473 15.8856 75.4263 17.6096 75.4263 20.1386C75.4263 22.5226 77.2313 24.3916 79.6473 24.3916C81.5963 24.3916 82.7243 23.1996 83.1923 22.5066L81.7423 21.5396C81.2593 22.2486 80.5983 22.7156 79.6473 22.7156C78.6973 22.7156 78.0203 22.2806 77.5853 21.4266L83.2723 19.0746L83.0793 18.5926ZM77.2793 20.0106C77.2313 18.3666 78.5523 17.5296 79.5033 17.5296C80.2443 17.5296 80.8723 17.9006 81.0823 18.4316L77.2793 20.0106ZM72.6563 24.1346H74.5243V11.6336H72.6563V24.1346ZM69.5943 16.8366H69.5303C69.1113 16.3366 68.3053 15.8856 67.2913 15.8856C65.1643 15.8856 63.2153 17.7546 63.2153 20.1556C63.2153 22.5396 65.1643 24.3926 67.2913 24.3926C68.3063 24.3926 69.1113 23.9416 69.5303 23.4266H69.5943V24.0386C69.5943 25.6656 68.7243 26.5356 67.3233 26.5356C66.1793 26.5356 65.4703 25.7146 65.1803 25.0216L63.5533 25.6986C64.0203 26.8256 65.2603 28.2116 67.3233 28.2116C69.5143 28.2116 71.3673 26.9226 71.3673 23.7806V16.1446H69.5953V16.8366H69.5943ZM67.4523 22.7176C66.1633 22.7176 65.0843 21.6376 65.0843 20.1556C65.0843 18.6566 66.1633 17.5616 67.4523 17.5616C68.7243 17.5616 69.7233 18.6566 69.7233 20.1556C69.7233 21.6376 68.7243 22.7176 67.4523 22.7176ZM91.8333 11.6336H87.3623V24.1346H89.2273V19.3986H91.8323C93.9003 19.3986 95.9343 17.9016 95.9343 15.5166C95.9343 13.1316 93.9013 11.6336 91.8333 11.6336ZM91.8813 17.6586H89.2273V13.3736H91.8813C93.2763 13.3736 94.0683 14.5286 94.0683 15.5166C94.0683 16.4846 93.2763 17.6586 91.8813 17.6586ZM103.413 15.8636C102.062 15.8636 100.663 16.4586 100.084 17.7776L101.74 18.4686C102.094 17.7776 102.754 17.5516 103.445 17.5516C104.41 17.5516 105.391 18.1306 105.407 19.1596V19.2886C105.069 19.0956 104.345 18.8066 103.461 18.8066C101.676 18.8066 99.8583 19.7876 99.8583 21.6206C99.8583 23.2936 101.322 24.3706 102.962 24.3706C104.216 24.3706 104.908 23.8076 105.342 23.1476H105.406V24.1126H107.208V19.3196C107.209 17.1016 105.551 15.8636 103.413 15.8636ZM103.187 22.7146C102.577 22.7146 101.724 22.4086 101.724 21.6526C101.724 20.6876 102.786 20.3176 103.703 20.3176C104.522 20.3176 104.909 20.4946 105.407 20.7356C105.262 21.8946 104.265 22.7146 103.187 22.7146ZM113.77 16.1366L111.631 21.5566H111.567L109.347 16.1366H107.337L110.666 23.7116L108.768 27.9256H110.714L115.845 16.1366H113.77ZM96.9643 24.1346H98.8293V11.6336H96.9643V24.1346Z" fill="#8EA1B8"/>
<path d="M58.1633 15.8856C55.8113 15.8856 53.8943 17.6746 53.8943 20.1386C53.8943 22.5876 55.8113 24.3916 58.1633 24.3916C60.5163 24.3916 62.4333 22.5876 62.4333 20.1386C62.4323 17.6746 60.5153 15.8856 58.1633 15.8856ZM58.1633 22.7176C56.8743 22.7176 55.7633 21.6546 55.7633 20.1396C55.7633 18.6086 56.8753 17.5616 58.1633 17.5616C59.4523 17.5616 60.5633 18.6086 60.5633 20.1396C60.5633 21.6536 59.4523 22.7176 58.1633 22.7176ZM48.8493 15.8856C46.4973 15.8856 44.5803 17.6746 44.5803 20.1386C44.5803 22.5876 46.4973 24.3916 48.8493 24.3916C51.2023 24.3916 53.1193 22.5876 53.1193 20.1386C53.1193 17.6746 51.2023 15.8856 48.8493 15.8856ZM48.8493 22.7176C47.5603 22.7176 46.4493 21.6546 46.4493 20.1396C46.4493 18.6086 47.5613 17.5616 48.8493 17.5616C50.1383 17.5616 51.2493 18.6086 51.2493 20.1396C51.2503 21.6536 50.1383 22.7176 48.8493 22.7176ZM37.7713 17.1916V18.9956H42.0893C41.9603 20.0106 41.6223 20.7516 41.1063 21.2666C40.4783 21.8946 39.4953 22.5876 37.7713 22.5876C35.1133 22.5876 33.0353 20.4446 33.0353 17.7866C33.0353 15.1286 35.1133 12.9856 37.7713 12.9856C39.2053 12.9856 40.2523 13.5496 41.0253 14.2746L42.2983 13.0016C41.2183 11.9706 39.7853 11.1816 37.7713 11.1816C34.1303 11.1816 31.0693 14.1456 31.0693 17.7866C31.0693 21.4276 34.1303 24.3916 37.7713 24.3916C39.7363 24.3916 41.2193 23.7466 42.3783 22.5386C43.5703 21.3466 43.9413 19.6706 43.9413 18.3176C43.9413 17.8996 43.9093 17.5126 43.8443 17.1906H37.7713V17.1916ZM83.0793 18.5926C82.7253 17.6426 81.6453 15.8856 79.4383 15.8856C77.2473 15.8856 75.4263 17.6096 75.4263 20.1386C75.4263 22.5226 77.2313 24.3916 79.6473 24.3916C81.5963 24.3916 82.7243 23.1996 83.1923 22.5066L81.7423 21.5396C81.2593 22.2486 80.5983 22.7156 79.6473 22.7156C78.6973 22.7156 78.0203 22.2806 77.5853 21.4266L83.2723 19.0746L83.0793 18.5926ZM77.2793 20.0106C77.2313 18.3666 78.5523 17.5296 79.5033 17.5296C80.2443 17.5296 80.8723 17.9006 81.0823 18.4316L77.2793 20.0106ZM72.6563 24.1346H74.5243V11.6336H72.6563V24.1346ZM69.5943 16.8366H69.5303C69.1113 16.3366 68.3053 15.8856 67.2913 15.8856C65.1643 15.8856 63.2153 17.7546 63.2153 20.1556C63.2153 22.5396 65.1643 24.3926 67.2913 24.3926C68.3063 24.3926 69.1113 23.9416 69.5303 23.4266H69.5943V24.0386C69.5943 25.6656 68.7243 26.5356 67.3233 26.5356C66.1793 26.5356 65.4703 25.7146 65.1803 25.0216L63.5533 25.6986C64.0203 26.8256 65.2603 28.2116 67.3233 28.2116C69.5143 28.2116 71.3673 26.9226 71.3673 23.7806V16.1446H69.5953V16.8366H69.5943ZM67.4523 22.7176C66.1633 22.7176 65.0843 21.6376 65.0843 20.1556C65.0843 18.6566 66.1633 17.5616 67.4523 17.5616C68.7243 17.5616 69.7233 18.6566 69.7233 20.1556C69.7233 21.6376 68.7243 22.7176 67.4523 22.7176ZM91.8333 11.6336H87.3623V24.1346H89.2273V19.3986H91.8323C93.9003 19.3986 95.9343 17.9016 95.9343 15.5166C95.9343 13.1316 93.9013 11.6336 91.8333 11.6336ZM91.8813 17.6586H89.2273V13.3736H91.8813C93.2763 13.3736 94.0683 14.5286 94.0683 15.5166C94.0683 16.4846 93.2763 17.6586 91.8813 17.6586ZM103.413 15.8636C102.062 15.8636 100.663 16.4586 100.084 17.7776L101.74 18.4686C102.094 17.7776 102.754 17.5516 103.445 17.5516C104.41 17.5516 105.391 18.1306 105.407 19.1596V19.2886C105.069 19.0956 104.345 18.8066 103.461 18.8066C101.676 18.8066 99.8583 19.7876 99.8583 21.6206C99.8583 23.2936 101.322 24.3706 102.962 24.3706C104.216 24.3706 104.908 23.8076 105.342 23.1476H105.406V24.1126H107.208V19.3196C107.209 17.1016 105.551 15.8636 103.413 15.8636ZM103.187 22.7146C102.577 22.7146 101.724 22.4086 101.724 21.6526C101.724 20.6876 102.786 20.3176 103.703 20.3176C104.522 20.3176 104.909 20.4946 105.407 20.7356C105.262 21.8946 104.265 22.7146 103.187 22.7146ZM113.77 16.1366L111.631 21.5566H111.567L109.347 16.1366H107.337L110.666 23.7116L108.768 27.9256H110.714L115.845 16.1366H113.77ZM96.9643 24.1346H98.8293V11.6336H96.9643V24.1346Z" fill="black" fill-opacity="0.2"/>
<path d="M37.4449 4.37795C37.4449 5.21595 37.1969 5.88295 36.6999 6.38095C36.1359 6.97295 35.3999 7.26895 34.4959 7.26895C33.6299 7.26895 32.8929 6.96895 32.2879 6.36895C31.6819 5.76795 31.3789 5.02395 31.3789 4.13595C31.3789 3.24695 31.6819 2.50295 32.2879 1.90295C32.8929 1.30195 33.6299 1.00195 34.4959 1.00195C34.9259 1.00195 35.3369 1.08595 35.7269 1.25295C36.1179 1.42095 36.4309 1.64395 36.6649 1.92295L36.1379 2.45095C35.7409 1.97595 35.1939 1.73895 34.4949 1.73895C33.8629 1.73895 33.3169 1.96095 32.8559 2.40495C32.3949 2.84895 32.1649 3.42595 32.1649 4.13495C32.1649 4.84395 32.3949 5.42095 32.8559 5.86495C33.3169 6.30895 33.8629 6.53095 34.4949 6.53095C35.1649 6.53095 35.7239 6.30795 36.1709 5.86095C36.4609 5.56995 36.6289 5.16495 36.6739 4.64595H34.4949V3.92495H37.4019C37.4319 4.08195 37.4449 4.23295 37.4449 4.37795Z" fill="#8EA1B8"/>
<path d="M37.4449 4.37795C37.4449 5.21595 37.1969 5.88295 36.6999 6.38095C36.1359 6.97295 35.3999 7.26895 34.4959 7.26895C33.6299 7.26895 32.8929 6.96895 32.2879 6.36895C31.6819 5.76795 31.3789 5.02395 31.3789 4.13595C31.3789 3.24695 31.6819 2.50295 32.2879 1.90295C32.8929 1.30195 33.6299 1.00195 34.4959 1.00195C34.9259 1.00195 35.3369 1.08595 35.7269 1.25295C36.1179 1.42095 36.4309 1.64395 36.6649 1.92295L36.1379 2.45095C35.7409 1.97595 35.1939 1.73895 34.4949 1.73895C33.8629 1.73895 33.3169 1.96095 32.8559 2.40495C32.3949 2.84895 32.1649 3.42595 32.1649 4.13495C32.1649 4.84395 32.3949 5.42095 32.8559 5.86495C33.3169 6.30895 33.8629 6.53095 34.4949 6.53095C35.1649 6.53095 35.7239 6.30795 36.1709 5.86095C36.4609 5.56995 36.6289 5.16495 36.6739 4.64595H34.4949V3.92495H37.4019C37.4319 4.08195 37.4449 4.23295 37.4449 4.37795Z" fill="black" fill-opacity="0.2"/>
<path d="M42.055 1.87201H39.323V3.77401H41.787V4.49501H39.323V6.39701H42.055V7.13501H38.552V1.13501H42.055V1.87201Z" fill="#8EA1B8"/>
<path d="M42.055 1.87201H39.323V3.77401H41.787V4.49501H39.323V6.39701H42.055V7.13501H38.552V1.13501H42.055V1.87201Z" fill="black" fill-opacity="0.2"/>
<path d="M45.3059 7.13501H44.5349V1.87201H42.8589V1.13501H46.9819V1.87201H45.3059V7.13501Z" fill="#8EA1B8"/>
<path d="M45.3059 7.13501H44.5349V1.87201H42.8589V1.13501H46.9819V1.87201H45.3059V7.13501Z" fill="black" fill-opacity="0.2"/>
<path d="M49.9648 7.13501V1.13501H50.7358V7.13501H49.9648Z" fill="#8EA1B8"/>
<path d="M49.9648 7.13501V1.13501H50.7358V7.13501H49.9648Z" fill="black" fill-opacity="0.2"/>
<path d="M54.155 7.13501H53.384V1.87201H51.708V1.13501H55.831V1.87201H54.155V7.13501Z" fill="#8EA1B8"/>
<path d="M54.155 7.13501H53.384V1.87201H51.708V1.13501H55.831V1.87201H54.155V7.13501Z" fill="black" fill-opacity="0.2"/>
<path d="M63.6358 6.36C63.0458 6.966 62.3128 7.269 61.4358 7.269C60.5588 7.269 59.8258 6.966 59.2368 6.36C58.6468 5.754 58.3528 5.012 58.3528 4.135C58.3528 3.258 58.6468 2.516 59.2368 1.91C59.8258 1.304 60.5588 1 61.4358 1C62.3078 1 63.0398 1.305 63.6318 1.914C64.2238 2.523 64.5198 3.263 64.5198 4.135C64.5198 5.012 64.2248 5.754 63.6358 6.36ZM59.8058 5.857C60.2498 6.307 60.7928 6.531 61.4358 6.531C62.0788 6.531 62.6228 6.306 63.0658 5.857C63.5098 5.407 63.7328 4.833 63.7328 4.135C63.7328 3.437 63.5098 2.863 63.0658 2.413C62.6228 1.963 62.0788 1.739 61.4358 1.739C60.7928 1.739 60.2498 1.964 59.8058 2.413C59.3628 2.863 59.1398 3.437 59.1398 4.135C59.1398 4.833 59.3628 5.407 59.8058 5.857Z" fill="#8EA1B8"/>
<path d="M63.6358 6.36C63.0458 6.966 62.3128 7.269 61.4358 7.269C60.5588 7.269 59.8258 6.966 59.2368 6.36C58.6468 5.754 58.3528 5.012 58.3528 4.135C58.3528 3.258 58.6468 2.516 59.2368 1.91C59.8258 1.304 60.5588 1 61.4358 1C62.3078 1 63.0398 1.305 63.6318 1.914C64.2238 2.523 64.5198 3.263 64.5198 4.135C64.5198 5.012 64.2248 5.754 63.6358 6.36ZM59.8058 5.857C60.2498 6.307 60.7928 6.531 61.4358 6.531C62.0788 6.531 62.6228 6.306 63.0658 5.857C63.5098 5.407 63.7328 4.833 63.7328 4.135C63.7328 3.437 63.5098 2.863 63.0658 2.413C62.6228 1.963 62.0788 1.739 61.4358 1.739C60.7928 1.739 60.2498 1.964 59.8058 2.413C59.3628 2.863 59.1398 3.437 59.1398 4.135C59.1398 4.833 59.3628 5.407 59.8058 5.857Z" fill="black" fill-opacity="0.2"/>
<path d="M65.6018 7.13501V1.13501H66.5398L69.4558 5.80201H69.4888L69.4558 4.64601V1.13501H70.2268V7.13501H69.4218L66.3708 2.24101H66.3378L66.3708 3.39701V7.13501H65.6018Z" fill="#8EA1B8"/>
<path d="M65.6018 7.13501V1.13501H66.5398L69.4558 5.80201H69.4888L69.4558 4.64601V1.13501H70.2268V7.13501H69.4218L66.3708 2.24101H66.3378L66.3708 3.39701V7.13501H65.6018Z" fill="black" fill-opacity="0.2"/>
<path d="M37.4449 4.37795C37.4449 5.21595 37.1969 5.88295 36.6999 6.38095C36.1359 6.97295 35.3999 7.26895 34.4959 7.26895C33.6299 7.26895 32.8929 6.96895 32.2879 6.36895C31.6819 5.76795 31.3789 5.02395 31.3789 4.13595C31.3789 3.24695 31.6819 2.50295 32.2879 1.90295C32.8929 1.30195 33.6299 1.00195 34.4959 1.00195C34.9259 1.00195 35.3369 1.08595 35.7269 1.25295C36.1179 1.42095 36.4309 1.64395 36.6649 1.92295L36.1379 2.45095C35.7409 1.97595 35.1939 1.73895 34.4949 1.73895C33.8629 1.73895 33.3169 1.96095 32.8559 2.40495C32.3949 2.84895 32.1649 3.42595 32.1649 4.13495C32.1649 4.84395 32.3949 5.42095 32.8559 5.86495C33.3169 6.30895 33.8629 6.53095 34.4949 6.53095C35.1649 6.53095 35.7239 6.30795 36.1709 5.86095C36.4609 5.56995 36.6289 5.16495 36.6739 4.64595H34.4949V3.92495H37.4019C37.4319 4.08195 37.4449 4.23295 37.4449 4.37795Z" stroke="#8EA1B8" stroke-width="0.2" stroke-miterlimit="10"/>
<path d="M37.4449 4.37795C37.4449 5.21595 37.1969 5.88295 36.6999 6.38095C36.1359 6.97295 35.3999 7.26895 34.4959 7.26895C33.6299 7.26895 32.8929 6.96895 32.2879 6.36895C31.6819 5.76795 31.3789 5.02395 31.3789 4.13595C31.3789 3.24695 31.6819 2.50295 32.2879 1.90295C32.8929 1.30195 33.6299 1.00195 34.4959 1.00195C34.9259 1.00195 35.3369 1.08595 35.7269 1.25295C36.1179 1.42095 36.4309 1.64395 36.6649 1.92295L36.1379 2.45095C35.7409 1.97595 35.1939 1.73895 34.4949 1.73895C33.8629 1.73895 33.3169 1.96095 32.8559 2.40495C32.3949 2.84895 32.1649 3.42595 32.1649 4.13495C32.1649 4.84395 32.3949 5.42095 32.8559 5.86495C33.3169 6.30895 33.8629 6.53095 34.4949 6.53095C35.1649 6.53095 35.7239 6.30795 36.1709 5.86095C36.4609 5.56995 36.6289 5.16495 36.6739 4.64595H34.4949V3.92495H37.4019C37.4319 4.08195 37.4449 4.23295 37.4449 4.37795Z" stroke="black" stroke-opacity="0.2" stroke-width="0.2" stroke-miterlimit="10"/>
<path d="M42.055 1.87201H39.323V3.77401H41.787V4.49501H39.323V6.39701H42.055V7.13501H38.552V1.13501H42.055V1.87201Z" stroke="#8EA1B8" stroke-width="0.2" stroke-miterlimit="10"/>
<path d="M42.055 1.87201H39.323V3.77401H41.787V4.49501H39.323V6.39701H42.055V7.13501H38.552V1.13501H42.055V1.87201Z" stroke="black" stroke-opacity="0.2" stroke-width="0.2" stroke-miterlimit="10"/>
<path d="M45.3059 7.13501H44.5349V1.87201H42.8589V1.13501H46.9819V1.87201H45.3059V7.13501Z" stroke="#8EA1B8" stroke-width="0.2" stroke-miterlimit="10"/>
<path d="M45.3059 7.13501H44.5349V1.87201H42.8589V1.13501H46.9819V1.87201H45.3059V7.13501Z" stroke="black" stroke-opacity="0.2" stroke-width="0.2" stroke-miterlimit="10"/>
<path d="M49.9648 7.13501V1.13501H50.7358V7.13501H49.9648Z" stroke="#8EA1B8" stroke-width="0.2" stroke-miterlimit="10"/>
<path d="M49.9648 7.13501V1.13501H50.7358V7.13501H49.9648Z" stroke="black" stroke-opacity="0.2" stroke-width="0.2" stroke-miterlimit="10"/>
<path d="M54.155 7.13501H53.384V1.87201H51.708V1.13501H55.831V1.87201H54.155V7.13501Z" stroke="#8EA1B8" stroke-width="0.2" stroke-miterlimit="10"/>
<path d="M54.155 7.13501H53.384V1.87201H51.708V1.13501H55.831V1.87201H54.155V7.13501Z" stroke="black" stroke-opacity="0.2" stroke-width="0.2" stroke-miterlimit="10"/>
<path d="M63.6358 6.36C63.0458 6.966 62.3128 7.269 61.4358 7.269C60.5588 7.269 59.8258 6.966 59.2368 6.36C58.6468 5.754 58.3528 5.012 58.3528 4.135C58.3528 3.258 58.6468 2.516 59.2368 1.91C59.8258 1.304 60.5588 1 61.4358 1C62.3078 1 63.0398 1.305 63.6318 1.914C64.2238 2.523 64.5198 3.263 64.5198 4.135C64.5198 5.012 64.2248 5.754 63.6358 6.36ZM59.8058 5.857C60.2498 6.307 60.7928 6.531 61.4358 6.531C62.0788 6.531 62.6228 6.306 63.0658 5.857C63.5098 5.407 63.7328 4.833 63.7328 4.135C63.7328 3.437 63.5098 2.863 63.0658 2.413C62.6228 1.963 62.0788 1.739 61.4358 1.739C60.7928 1.739 60.2498 1.964 59.8058 2.413C59.3628 2.863 59.1398 3.437 59.1398 4.135C59.1398 4.833 59.3628 5.407 59.8058 5.857Z" stroke="#8EA1B8" stroke-width="0.2" stroke-miterlimit="10"/>
<path d="M63.6358 6.36C63.0458 6.966 62.3128 7.269 61.4358 7.269C60.5588 7.269 59.8258 6.966 59.2368 6.36C58.6468 5.754 58.3528 5.012 58.3528 4.135C58.3528 3.258 58.6468 2.516 59.2368 1.91C59.8258 1.304 60.5588 1 61.4358 1C62.3078 1 63.0398 1.305 63.6318 1.914C64.2238 2.523 64.5198 3.263 64.5198 4.135C64.5198 5.012 64.2248 5.754 63.6358 6.36ZM59.8058 5.857C60.2498 6.307 60.7928 6.531 61.4358 6.531C62.0788 6.531 62.6228 6.306 63.0658 5.857C63.5098 5.407 63.7328 4.833 63.7328 4.135C63.7328 3.437 63.5098 2.863 63.0658 2.413C62.6228 1.963 62.0788 1.739 61.4358 1.739C60.7928 1.739 60.2498 1.964 59.8058 2.413C59.3628 2.863 59.1398 3.437 59.1398 4.135C59.1398 4.833 59.3628 5.407 59.8058 5.857Z" stroke="black" stroke-opacity="0.2" stroke-width="0.2" stroke-miterlimit="10"/>
<path d="M65.6018 7.13501V1.13501H66.5398L69.4558 5.80201H69.4888L69.4558 4.64601V1.13501H70.2268V7.13501H69.4218L66.3708 2.24101H66.3378L66.3708 3.39701V7.13501H65.6018Z" stroke="#8EA1B8" stroke-width="0.2" stroke-miterlimit="10"/>
<path d="M65.6018 7.13501V1.13501H66.5398L69.4558 5.80201H69.4888L69.4558 4.64601V1.13501H70.2268V7.13501H69.4218L66.3708 2.24101H66.3378L66.3708 3.39701V7.13501H65.6018Z" stroke="black" stroke-opacity="0.2" stroke-width="0.2" stroke-miterlimit="10"/>
<path fill-rule="evenodd" clip-rule="evenodd" d="M0.183365 2.10143C0.0652497 2.36893 0 2.69669 0 3.07795V25.1939C0 25.576 0.0653299 25.9038 0.183583 26.1712L12.2175 14.1356L0.183365 2.10143ZM0.878585 26.8904C1.32464 27.0813 1.90651 27.0208 2.541 26.661L16.6981 18.6162L12.9246 14.8427L0.878585 26.8904ZM17.6005 18.1044L22.042 15.581C23.439 14.786 23.439 13.487 22.042 12.693L17.5986 10.1681L13.6317 14.1355L17.6005 18.1044ZM16.6968 9.65566L2.541 1.61195C1.90647 1.25138 1.32457 1.19121 0.878503 1.38235L12.9246 13.4284L16.6968 9.65566Z" fill="#8EA1B8"/>
<path fill-rule="evenodd" clip-rule="evenodd" d="M0.183365 2.10143C0.0652497 2.36893 0 2.69669 0 3.07795V25.1939C0 25.576 0.0653299 25.9038 0.183583 26.1712L12.2175 14.1356L0.183365 2.10143ZM0.878585 26.8904C1.32464 27.0813 1.90651 27.0208 2.541 26.661L16.6981 18.6162L12.9246 14.8427L0.878585 26.8904ZM17.6005 18.1044L22.042 15.581C23.439 14.786 23.439 13.487 22.042 12.693L17.5986 10.1681L13.6317 14.1355L17.6005 18.1044ZM16.6968 9.65566L2.541 1.61195C1.90647 1.25138 1.32457 1.19121 0.878503 1.38235L12.9246 13.4284L16.6968 9.65566Z" fill="black" fill-opacity="0.2"/>
</svg>
