<svg width="15" height="15" viewBox="0 0 15 15" fill="none" xmlns="http://www.w3.org/2000/svg">
<path d="M14.2178 14.1311C13.3647 14.1108 12.5318 14.1108 11.6787 14.1311C11.4959 14.1311 11.4553 14.0905 11.4553 13.9077C11.4553 12.4045 11.4553 10.8811 11.4553 9.37798C11.4553 9.03266 11.435 8.68735 11.3334 8.36235C11.0287 7.3061 9.80996 6.92016 8.93652 7.6311C8.46934 7.99673 8.28652 8.50454 8.28652 9.11391C8.28652 10.5358 8.28652 11.9577 8.28652 13.3795C8.28652 13.5624 8.26621 13.7452 8.28652 13.9483C8.30684 14.1108 8.22559 14.1514 8.0834 14.1311C7.20996 14.1311 6.35684 14.1311 5.4834 14.1311C5.3209 14.1311 5.28027 14.0905 5.28027 13.928C5.30059 12.6483 5.30059 11.3686 5.30059 10.0686C5.30059 8.48423 5.30059 6.89985 5.28027 5.33579C5.28027 5.15298 5.3209 5.11235 5.4834 5.11235C6.35684 5.11235 7.20996 5.11235 8.0834 5.11235C8.2459 5.11235 8.28652 5.15298 8.28652 5.31548C8.28652 5.64048 8.28652 5.96548 8.28652 6.35141C8.34746 6.29048 8.36777 6.27016 8.38809 6.24985C9.18027 5.09204 10.2975 4.76704 11.6178 4.97016C13.1412 5.21391 14.1162 6.27016 14.36 7.89516C14.4209 8.2811 14.4412 8.66704 14.4412 9.05298C14.4412 10.678 14.4412 12.2827 14.4412 13.9077C14.4412 14.0702 14.4006 14.1311 14.2178 14.1311Z" fill="white"/>
<path d="M3.65513 9.62217C3.65513 11.044 3.65513 12.4659 3.65513 13.8878C3.65513 14.0706 3.6145 14.1315 3.43169 14.1315C2.57857 14.1112 1.72544 14.1315 0.872314 14.1315C0.709814 14.1315 0.669189 14.0909 0.669189 13.9284C0.669189 11.0644 0.669189 8.17998 0.669189 5.31592C0.669189 5.17373 0.709814 5.11279 0.872314 5.11279C1.74575 5.11279 2.61919 5.11279 3.49263 5.11279C3.67544 5.11279 3.69575 5.17373 3.69575 5.33623C3.65513 6.75811 3.65513 8.17998 3.65513 9.62217Z" fill="white"/>
<path d="M3.79745 2.75627C3.59432 3.56877 2.76151 4.03596 1.80682 3.87346C0.791198 3.71096 0.222448 2.71565 0.588073 1.74065C0.831823 1.13127 1.42089 0.765648 2.17245 0.785961C3.30995 0.765648 4.06151 1.67971 3.79745 2.75627Z" fill="white"/>
</svg>
