<svg width="17" height="18" viewBox="0 0 17 18" fill="none" xmlns="http://www.w3.org/2000/svg">
<path d="M3.24267 15.3344C1.90545 14.2686 1.68482 12.3153 2.75062 10.9781L5.24373 7.85007L3.75793 6.66585L1.26482 9.79385C-0.455422 11.9522 -0.0998798 15.1 2.05844 16.8202C4.21677 18.5405 7.36459 18.1849 9.08483 16.0266L11.5779 12.8986L10.0921 11.7144L7.59903 14.8424C6.53323 16.1796 4.57989 16.4002 3.24267 15.3344ZM6.58011 12.7515L11.5663 6.4955L10.0023 5.24895L5.0161 11.505L6.58011 12.7515ZM7.49759 1.97384L5.00448 5.10184L6.49029 6.28607L8.98339 3.15807C10.0492 1.82084 12.0025 1.60022 13.3398 2.66602C14.677 3.73182 14.8976 5.68516 13.8318 7.02238L11.3387 10.1504L12.8245 11.3346L15.3176 8.20661C17.0378 6.04828 16.6823 2.90046 14.524 1.18022C12.3657 -0.540026 9.21784 -0.184484 7.49759 1.97384Z" fill="white"/>
</svg>
