<svg width="202" height="36" viewBox="0 0 202 36" fill="none" xmlns="http://www.w3.org/2000/svg">
<path d="M67.6711 8.98781V12.6639H55.8486V16.4489H67.1288V20.125H55.8486V26.8509H51.7812V8.98781H67.6711Z" fill="#141046"/>
<path d="M75.7815 26.8509C74.3353 26.8509 73.2145 26.5059 72.4191 25.8161C71.6237 25.1081 71.226 24.1278 71.226 22.8752V7.8986H75.1307V22.1673C75.1307 22.5848 75.2392 22.8934 75.4561 23.0931C75.673 23.2928 76.0255 23.3926 76.5136 23.3926H77.6796V26.8509H75.7815Z" fill="#141046"/>
<path d="M87.83 27.1776C86.1307 27.1776 84.6575 26.9053 83.4101 26.3607C82.1628 25.798 81.2047 24.9992 80.5359 23.9644C79.867 22.9115 79.5326 21.6771 79.5326 20.2611V19.9071C79.5326 18.4549 79.858 17.2023 80.5087 16.1494C81.1776 15.0965 82.1357 14.2886 83.383 13.7259C84.6303 13.1631 86.1127 12.8817 87.83 12.8817C89.5293 12.8817 90.9935 13.1631 92.2228 13.7259C93.452 14.2886 94.392 15.0965 95.0428 16.1494C95.7117 17.2023 96.0461 18.4549 96.0461 19.9071V20.2611C96.0461 21.6771 95.7117 22.9115 95.0428 23.9644C94.392 24.9992 93.452 25.798 92.2228 26.3607C90.9935 26.9053 89.5293 27.1776 87.83 27.1776ZM87.8029 23.5832C89.1225 23.5832 90.1439 23.2928 90.867 22.7119C91.6081 22.1309 91.9787 21.305 91.9787 20.2339V19.9344C91.9787 18.827 91.6172 17.9738 90.8941 17.3747C90.171 16.7757 89.1406 16.4761 87.8029 16.4761C86.4471 16.4761 85.4077 16.7757 84.6846 17.3747C83.9615 17.9556 83.5999 18.8089 83.5999 19.9344V20.2339C83.5999 21.305 83.9615 22.1309 84.6846 22.7119C85.4257 23.2928 86.4652 23.5832 87.8029 23.5832Z" fill="#141046"/>
<path d="M105.347 16.694V21.8677C105.347 22.3579 105.483 22.7391 105.754 23.0114C106.043 23.2655 106.45 23.3926 106.974 23.3926H110.174V26.8509H106.459C104.904 26.8509 103.675 26.4333 102.771 25.5983C101.867 24.7451 101.415 23.5923 101.415 22.14V16.694H96.8871V13.2085H100.521C100.9 13.2085 101.162 13.1359 101.307 12.9907C101.452 12.8454 101.524 12.5822 101.524 12.201V9.58688H105.347V13.2085H110.987V16.694H105.347Z" fill="#141046"/>
<path d="M117.564 13.2085V26.8509H113.659V13.2085H117.564ZM115.611 11.6291C114.888 11.6291 114.301 11.4204 113.849 11.0028C113.397 10.5672 113.171 10.0044 113.171 9.31457C113.171 8.62474 113.397 8.07106 113.849 7.65353C114.301 7.21784 114.888 7 115.611 7C116.353 7 116.94 7.21784 117.374 7.65353C117.826 8.07106 118.052 8.62474 118.052 9.31457C118.052 10.0044 117.826 10.5672 117.374 11.0028C116.922 11.4204 116.335 11.6291 115.611 11.6291Z" fill="#141046"/>
<path d="M137.308 13.2085V31.48H133.376V25.8433C132.165 26.7329 130.691 27.1776 128.956 27.1776C127.365 27.1776 125.973 26.8872 124.78 26.3062C123.605 25.7253 122.692 24.9084 122.041 23.8555C121.391 22.7845 121.065 21.55 121.065 20.1522V19.8799C121.065 18.4821 121.382 17.2567 122.014 16.2038C122.665 15.1328 123.587 14.3159 124.78 13.7531C125.973 13.1722 127.365 12.8817 128.956 12.8817C130.728 12.8817 132.255 13.381 133.539 14.3794L133.647 13.2085H137.308ZM129.336 23.5832C130.185 23.5832 130.963 23.4471 131.668 23.1748C132.391 22.9025 132.96 22.5303 133.376 22.0583V17.9738C132.978 17.5018 132.418 17.1387 131.695 16.8846C130.99 16.6123 130.203 16.4761 129.336 16.4761C128.016 16.4761 126.986 16.7757 126.244 17.3747C125.503 17.9738 125.133 18.8089 125.133 19.8799V20.1522C125.133 21.2414 125.503 22.0856 126.244 22.6846C126.986 23.2837 128.016 23.5832 129.336 23.5832Z" fill="#141046"/>
<path fill-rule="evenodd" clip-rule="evenodd" d="M0 4.90909C0 2.19787 2.18864 0 4.88846 0L13.0359 0C13.6092 0 14.1595 0.0991258 14.6707 0.281243C17.1287 1.15695 19.3899 3.27273 21.9981 3.27273C24.6062 3.27273 26.8674 1.15695 29.3254 0.281243C29.8366 0.0991257 30.3869 0 30.9602 0C33.66 0 35.8487 2.19787 35.8487 4.90909C35.8487 7.62031 33.66 9.81818 30.9602 9.81818C30.3869 9.81818 29.8366 9.71906 29.3254 9.53694C26.8674 8.66123 24.6062 6.54545 21.9981 6.54545C19.3899 6.54545 17.1287 8.66123 14.6707 9.53694C14.1595 9.71906 13.6092 9.81818 13.0359 9.81818H4.88846C2.18864 9.81818 0 7.62031 0 4.90909ZM1.98912e-05 18C1.98912e-05 15.2888 2.18866 13.0909 4.88848 13.0909C5.60594 13.0909 6.2873 13.2461 6.90108 13.5249C9.05494 14.5033 11.0793 16.3636 13.4433 16.3636C15.8072 16.3636 17.8316 14.5033 19.9854 13.5249C20.5992 13.2461 21.2806 13.0909 21.9981 13.0909C24.6979 13.0909 26.8865 15.2888 26.8865 18C26.8865 20.7112 24.6979 22.9091 21.9981 22.9091C21.2806 22.9091 20.5992 22.7539 19.9854 22.4751C17.8316 21.4967 15.8072 19.6364 13.4433 19.6364C11.0793 19.6364 9.05494 21.4967 6.90108 22.4751C6.2873 22.7539 5.60594 22.9091 4.88848 22.9091C2.18866 22.9091 1.98912e-05 20.7112 1.98912e-05 18ZM4.88848 26.1818C2.18866 26.1818 1.98912e-05 28.3797 1.98912e-05 31.0909C1.98912e-05 33.8021 2.18866 36 4.88848 36C7.58829 36 9.77693 33.8021 9.77693 31.0909C9.77693 28.3797 7.58829 26.1818 4.88848 26.1818Z" fill="#0083FC"/>
<rect x="151.5" y="7.72198" width="50" height="21.1429" rx="4" fill="#64FBC1"/>
<path d="M165.439 18.0974C165.776 18.2514 166.033 18.4604 166.209 18.7244C166.385 18.9884 166.473 19.2964 166.473 19.6484V19.7694C166.473 20.3927 166.231 20.8877 165.747 21.2544C165.263 21.6137 164.606 21.7934 163.778 21.7934H159.268V14.5774H163.569C164.419 14.5774 165.076 14.7461 165.538 15.0834C166.007 15.4134 166.242 15.8791 166.242 16.4804V16.6014C166.242 17.2467 165.974 17.7454 165.439 18.0974ZM160.918 16.0184V17.4704H163.558C164.24 17.4704 164.581 17.2467 164.581 16.7994V16.6894C164.581 16.4694 164.493 16.3044 164.317 16.1944C164.148 16.0771 163.899 16.0184 163.569 16.0184H160.918ZM164.79 19.5274C164.79 19.0727 164.445 18.8454 163.756 18.8454H160.918V20.3524H163.756C164.086 20.3524 164.339 20.2901 164.515 20.1654C164.698 20.0407 164.79 19.8647 164.79 19.6374V19.5274ZM169.554 14.5774V20.3084H174.449V21.7934H167.904V14.5774H169.554ZM179.105 21.9254C178.24 21.9254 177.484 21.7751 176.839 21.4744C176.194 21.1737 175.691 20.7447 175.332 20.1874C174.98 19.6301 174.804 18.9811 174.804 18.2404V18.1414C174.804 17.4007 174.98 16.7517 175.332 16.1944C175.691 15.6371 176.194 15.2081 176.839 14.9074C177.492 14.5994 178.247 14.4454 179.105 14.4454C179.97 14.4454 180.726 14.5994 181.371 14.9074C182.016 15.2081 182.515 15.6371 182.867 16.1944C183.219 16.7517 183.395 17.4007 183.395 18.1414V18.2404C183.395 18.9811 183.219 19.6301 182.867 20.1874C182.515 20.7447 182.016 21.1737 181.371 21.4744C180.726 21.7751 179.97 21.9254 179.105 21.9254ZM179.105 20.3964C179.956 20.3964 180.601 20.2131 181.041 19.8464C181.488 19.4797 181.712 18.9517 181.712 18.2624V18.1304C181.712 17.4411 181.485 16.9094 181.03 16.5354C180.583 16.1614 179.941 15.9744 179.105 15.9744C178.262 15.9744 177.613 16.1614 177.158 16.5354C176.711 16.9094 176.487 17.4411 176.487 18.1304V18.2624C176.487 18.9517 176.711 19.4797 177.158 19.8464C177.613 20.2131 178.262 20.3964 179.105 20.3964ZM193.052 17.8334V21.7934H191.567L191.512 21.1554C190.838 21.6687 189.958 21.9254 188.872 21.9254C187.978 21.9254 187.197 21.7787 186.529 21.4854C185.862 21.1847 185.349 20.7594 184.989 20.2094C184.63 19.6521 184.45 18.9994 184.45 18.2514V18.1304C184.45 17.3897 184.63 16.7444 184.989 16.1944C185.356 15.6371 185.869 15.2081 186.529 14.9074C187.197 14.5994 187.97 14.4454 188.85 14.4454C189.694 14.4454 190.431 14.5554 191.061 14.7754C191.692 14.9881 192.18 15.2924 192.524 15.6884C192.869 16.0844 193.041 16.5464 193.041 17.0744V17.1184H191.358V17.0744C191.358 16.8764 191.245 16.6931 191.017 16.5244C190.797 16.3484 190.497 16.2091 190.115 16.1064C189.741 16.0037 189.334 15.9524 188.894 15.9524C188.007 15.9524 187.325 16.1394 186.848 16.5134C186.372 16.8801 186.133 17.4117 186.133 18.1084V18.2734C186.133 18.9847 186.364 19.5201 186.826 19.8794C187.296 20.2387 187.985 20.4184 188.894 20.4184C189.444 20.4184 189.932 20.3524 190.357 20.2204C190.79 20.0811 191.149 19.8904 191.435 19.6484V19.1974H187.838V17.8334H193.052Z" fill="black"/>
</svg>
