<svg width="91" height="27" viewBox="0 0 91 27" fill="none" xmlns="http://www.w3.org/2000/svg">
<rect x="41" y="2" width="50" height="21.1429" rx="4" fill="#64FBC1"/>
<path d="M54.9387 12.3754C55.276 12.5294 55.5327 12.7384 55.7087 13.0024C55.8847 13.2664 55.9727 13.5744 55.9727 13.9264V14.0474C55.9727 14.6707 55.7307 15.1657 55.2467 15.5324C54.7627 15.8917 54.1063 16.0714 53.2777 16.0714H48.7677V8.85541H53.0687C53.9193 8.85541 54.5757 9.02408 55.0377 9.36141C55.507 9.69141 55.7417 10.1571 55.7417 10.7584V10.8794C55.7417 11.5247 55.474 12.0234 54.9387 12.3754ZM50.4177 10.2964V11.7484H53.0577C53.7397 11.7484 54.0807 11.5247 54.0807 11.0774V10.9674C54.0807 10.7474 53.9927 10.5824 53.8167 10.4724C53.648 10.3551 53.3987 10.2964 53.0687 10.2964H50.4177ZM54.2897 13.8054C54.2897 13.3507 53.945 13.1234 53.2557 13.1234H50.4177V14.6304H53.2557C53.5857 14.6304 53.8387 14.5681 54.0147 14.4434C54.198 14.3187 54.2897 14.1427 54.2897 13.9154V13.8054ZM59.0544 8.85541V14.5864H63.9494V16.0714H57.4044V8.85541H59.0544ZM68.6049 16.2034C67.7395 16.2034 66.9842 16.0531 66.3389 15.7524C65.6935 15.4517 65.1912 15.0227 64.8319 14.4654C64.4799 13.9081 64.3039 13.2591 64.3039 12.5184V12.4194C64.3039 11.6787 64.4799 11.0297 64.8319 10.4724C65.1912 9.91508 65.6935 9.48608 66.3389 9.18541C66.9915 8.87741 67.7469 8.72341 68.6049 8.72341C69.4702 8.72341 70.2255 8.87741 70.8709 9.18541C71.5162 9.48608 72.0149 9.91508 72.3669 10.4724C72.7189 11.0297 72.8949 11.6787 72.8949 12.4194V12.5184C72.8949 13.2591 72.7189 13.9081 72.3669 14.4654C72.0149 15.0227 71.5162 15.4517 70.8709 15.7524C70.2255 16.0531 69.4702 16.2034 68.6049 16.2034ZM68.6049 14.6744C69.4555 14.6744 70.1009 14.4911 70.5409 14.1244C70.9882 13.7577 71.2119 13.2297 71.2119 12.5404V12.4084C71.2119 11.7191 70.9845 11.1874 70.5299 10.8134C70.0825 10.4394 69.4409 10.2524 68.6049 10.2524C67.7615 10.2524 67.1125 10.4394 66.6579 10.8134C66.2105 11.1874 65.9869 11.7191 65.9869 12.4084V12.5404C65.9869 13.2297 66.2105 13.7577 66.6579 14.1244C67.1125 14.4911 67.7615 14.6744 68.6049 14.6744ZM82.5524 12.1114V16.0714H81.0674L81.0124 15.4334C80.3377 15.9467 79.4577 16.2034 78.3724 16.2034C77.4777 16.2034 76.6967 16.0567 76.0294 15.7634C75.362 15.4627 74.8487 15.0374 74.4894 14.4874C74.13 13.9301 73.9504 13.2774 73.9504 12.5294V12.4084C73.9504 11.6677 74.13 11.0224 74.4894 10.4724C74.856 9.91508 75.3694 9.48608 76.0294 9.18541C76.6967 8.87741 77.4704 8.72341 78.3504 8.72341C79.1937 8.72341 79.9307 8.83341 80.5614 9.05341C81.192 9.26608 81.6797 9.57041 82.0244 9.96641C82.369 10.3624 82.5414 10.8244 82.5414 11.3524V11.3964H80.8584V11.3524C80.8584 11.1544 80.7447 10.9711 80.5174 10.8024C80.2974 10.6264 79.9967 10.4871 79.6154 10.3844C79.2414 10.2817 78.8344 10.2304 78.3944 10.2304C77.507 10.2304 76.825 10.4174 76.3484 10.7914C75.8717 11.1581 75.6334 11.6897 75.6334 12.3864V12.5514C75.6334 13.2627 75.8644 13.7981 76.3264 14.1574C76.7957 14.5167 77.485 14.6964 78.3944 14.6964C78.9444 14.6964 79.432 14.6304 79.8574 14.4984C80.29 14.3591 80.6494 14.1684 80.9354 13.9264V13.4754H77.3384V12.1114H82.5524Z" fill="black"/>
<path fill-rule="evenodd" clip-rule="evenodd" d="M0 3.68182C0 1.64841 1.64044 0 3.66403 0L9.77075 0C10.2005 0 10.613 0.0743443 10.9961 0.210932C12.8385 0.867713 14.5333 2.45455 16.4881 2.45455V2.45455C18.443 2.45455 20.1378 0.867712 21.9802 0.210932C22.3633 0.0743443 22.7758 0 23.2055 0C25.2291 0 26.8696 1.64841 26.8696 3.68182C26.8696 5.71523 25.2291 7.36364 23.2055 7.36364C22.7758 7.36364 22.3633 7.28929 21.9802 7.1527C20.1378 6.49592 18.443 4.90909 16.4881 4.90909V4.90909C14.5333 4.90909 12.8385 6.49592 10.9961 7.1527C10.613 7.28929 10.2005 7.36364 9.77075 7.36364H3.66403C1.64044 7.36364 0 5.71523 0 3.68182ZM1.4909e-05 13.5C1.4909e-05 11.4666 1.64046 9.81818 3.66405 9.81818C4.2018 9.81818 4.7125 9.93459 5.17255 10.1437C6.78692 10.8775 8.30423 12.2727 10.0761 12.2727V12.2727C11.848 12.2727 13.3653 10.8775 14.9796 10.1437C15.4397 9.93459 15.9504 9.81818 16.4881 9.81818C18.5117 9.81818 20.1522 11.4666 20.1522 13.5C20.1522 15.5334 18.5117 17.1818 16.4881 17.1818C15.9504 17.1818 15.4397 17.0654 14.9796 16.8563C13.3653 16.1225 11.848 14.7273 10.0761 14.7273V14.7273C8.30423 14.7273 6.78692 16.1225 5.17255 16.8563C4.7125 17.0654 4.2018 17.1818 3.66405 17.1818C1.64046 17.1818 1.4909e-05 15.5334 1.4909e-05 13.5ZM3.66405 19.6364C1.64046 19.6364 1.4909e-05 21.2848 1.4909e-05 23.3182C1.4909e-05 25.3516 1.64046 27 3.66405 27C5.68763 27 7.32808 25.3516 7.32808 23.3182C7.32808 21.2848 5.68763 19.6364 3.66405 19.6364Z" fill="#0083FC"/>
</svg>
