<?xml version="1.0" encoding="utf-8"?>
<!-- Generator: Adobe Illustrator 26.0.1, SVG Export Plug-In . SVG Version: 6.00 Build 0)  -->
<svg version="1.1" id="Layer_1" xmlns="http://www.w3.org/2000/svg" xmlns:xlink="http://www.w3.org/1999/xlink" x="0px" y="0px"
	 viewBox="0 0 38 38" style="enable-background:new 0 0 38 38;" xml:space="preserve">
<style type="text/css">
	.st1{fill-rule:evenodd;clip-rule:evenodd;fill:#0083FC;}
</style>
<path class="st1" d="M0,5.2C0,2.3,2.2,0,4.9,0h8.2c0.6,0,1.1,0.1,1.6,0.3c2.5,0.9,4.7,3.2,7.4,3.2c2.6,0,4.9-2.2,7.4-3.2
	C30,0.1,30.5,0,31.1,0C33.8,0,36,2.3,36,5.2c0,2.9-2.2,5.2-4.9,5.2c-0.6,0-1.1-0.1-1.6-0.3c-2.5-0.9-4.7-3.2-7.4-3.2
	c-2.6,0-4.9,2.2-7.4,3.2c-0.5,0.2-1.1,0.3-1.6,0.3H4.9C2.2,10.3,0,8,0,5.2z M0,19c0-2.9,2.2-5.2,4.9-5.2c0.7,0,1.4,0.2,2,0.5
	c2.2,1,4.2,3,6.6,3c2.4,0,4.4-2,6.6-3c0.6-0.3,1.3-0.5,2-0.5c2.7,0,4.9,2.3,4.9,5.2c0,2.9-2.2,5.2-4.9,5.2c-0.7,0-1.4-0.2-2-0.5
	c-2.2-1-4.2-3-6.6-3c-2.4,0-4.4,2-6.6,3c-0.6,0.3-1.3,0.5-2,0.5C2.2,24.1,0,21.8,0,19z M4.9,27.6c-2.7,0-4.9,2.3-4.9,5.2
	s2.2,5.2,4.9,5.2c2.7,0,4.9-2.3,4.9-5.2S7.6,27.6,4.9,27.6z"/>
</svg>
