<svg width="138" height="36" viewBox="0 0 138 36" fill="none" xmlns="http://www.w3.org/2000/svg">
<path d="M67.9569 8.98781V12.6639H56.0845V16.4489H67.4123V20.125H56.0845V26.8509H52V8.98781H67.9569Z" fill="#141046"/>
<path d="M76.1015 26.8509C74.6493 26.8509 73.5237 26.5059 72.725 25.8161C71.9262 25.1081 71.5269 24.1278 71.5269 22.8752V7.8986H75.448V22.1673C75.448 22.5848 75.5569 22.8934 75.7748 23.0931C75.9926 23.2928 76.3466 23.3926 76.8368 23.3926H78.0077V26.8509H76.1015Z" fill="#141046"/>
<path d="M88.2009 27.1776C86.4945 27.1776 85.015 26.9053 83.7624 26.3607C82.5098 25.798 81.5477 24.9992 80.876 23.9644C80.2043 22.9115 79.8685 21.6771 79.8685 20.2611V19.9071C79.8685 18.4549 80.1952 17.2023 80.8488 16.1494C81.5204 15.0965 82.4826 14.2886 83.7352 13.7259C84.9878 13.1631 86.4763 12.8817 88.2009 12.8817C89.9074 12.8817 91.3778 13.1631 92.6122 13.7259C93.8467 14.2886 94.7906 15.0965 95.4442 16.1494C96.1159 17.2023 96.4517 18.4549 96.4517 19.9071V20.2611C96.4517 21.6771 96.1159 22.9115 95.4442 23.9644C94.7906 24.9992 93.8467 25.798 92.6122 26.3607C91.3778 26.9053 89.9074 27.1776 88.2009 27.1776ZM88.1737 23.5832C89.4989 23.5832 90.5246 23.2928 91.2507 22.7119C91.995 22.1309 92.3672 21.305 92.3672 20.2339V19.9344C92.3672 18.827 92.0041 17.9738 91.2779 17.3747C90.5518 16.7757 89.5171 16.4761 88.1737 16.4761C86.8122 16.4761 85.7684 16.7757 85.0422 17.3747C84.3161 17.9556 83.953 18.8089 83.953 19.9344V20.2339C83.953 21.305 84.3161 22.1309 85.0422 22.7119C85.7865 23.2928 86.8303 23.5832 88.1737 23.5832Z" fill="#141046"/>
<path d="M105.792 16.694V21.8677C105.792 22.3579 105.928 22.7391 106.201 23.0114C106.491 23.2655 106.899 23.3926 107.426 23.3926H110.639V26.8509H106.909C105.347 26.8509 104.113 26.4333 103.205 25.5983C102.298 24.7451 101.844 23.5923 101.844 22.14V16.694H97.2963V13.2085H100.945C101.326 13.2085 101.59 13.1359 101.735 12.9907C101.88 12.8454 101.953 12.5822 101.953 12.201V9.58688H105.792V13.2085H111.456V16.694H105.792Z" fill="#141046"/>
<path d="M118.06 13.2085V26.8509H114.139V13.2085H118.06ZM116.1 11.6291C115.373 11.6291 114.783 11.4204 114.33 11.0028C113.876 10.5672 113.649 10.0044 113.649 9.31457C113.649 8.62474 113.876 8.07106 114.33 7.65353C114.783 7.21784 115.373 7 116.1 7C116.844 7 117.434 7.21784 117.87 7.65353C118.323 8.07106 118.55 8.62474 118.55 9.31457C118.55 10.0044 118.323 10.5672 117.87 11.0028C117.416 11.4204 116.826 11.6291 116.1 11.6291Z" fill="#141046"/>
<path d="M137.887 13.2085V31.48H133.939V25.8433C132.723 26.7329 131.243 27.1776 129.501 27.1776C127.903 27.1776 126.505 26.8872 125.307 26.3062C124.127 25.7253 123.21 24.9084 122.557 23.8555C121.903 22.7845 121.576 21.55 121.576 20.1522V19.8799C121.576 18.4821 121.894 17.2567 122.53 16.2038C123.183 15.1328 124.109 14.3159 125.307 13.7531C126.505 13.1722 127.903 12.8817 129.501 12.8817C131.28 12.8817 132.814 13.381 134.102 14.3794L134.211 13.2085H137.887ZM129.882 23.5832C130.735 23.5832 131.516 23.4471 132.224 23.1748C132.95 22.9025 133.522 22.5303 133.939 22.0583V17.9738C133.54 17.5018 132.977 17.1387 132.251 16.8846C131.543 16.6123 130.753 16.4761 129.882 16.4761C128.557 16.4761 127.522 16.7757 126.777 17.3747C126.033 17.9738 125.661 18.8089 125.661 19.8799V20.1522C125.661 21.2414 126.033 22.0856 126.777 22.6846C127.522 23.2837 128.557 23.5832 129.882 23.5832Z" fill="#141046"/>
<path fill-rule="evenodd" clip-rule="evenodd" d="M0 4.90909C0 2.19787 2.19787 0 4.90909 0L13.0909 0C13.6667 0 14.2193 0.0991258 14.7327 0.281243C17.201 1.15695 19.4718 3.27273 22.0909 3.27273C24.71 3.27273 26.9808 1.15695 29.4492 0.281243C29.9625 0.0991257 30.5151 0 31.0909 0C33.8021 0 36 2.19787 36 4.90909C36 7.62031 33.8021 9.81818 31.0909 9.81818C30.5151 9.81818 29.9625 9.71906 29.4492 9.53694C26.9808 8.66123 24.71 6.54545 22.0909 6.54545C19.4718 6.54545 17.201 8.66123 14.7327 9.53694C14.2193 9.71906 13.6667 9.81818 13.0909 9.81818H4.90909C2.19787 9.81818 0 7.62031 0 4.90909ZM1.99751e-05 18C1.99751e-05 15.2888 2.19789 13.0909 4.90911 13.0909C5.6296 13.0909 6.31384 13.2461 6.93021 13.5249C9.09316 14.5033 11.1261 16.3636 13.5 16.3636C15.874 16.3636 17.9069 14.5033 20.0698 13.5249C20.6862 13.2461 21.3704 13.0909 22.0909 13.0909C24.8021 13.0909 27 15.2888 27 18C27 20.7112 24.8021 22.9091 22.0909 22.9091C21.3704 22.9091 20.6862 22.7539 20.0698 22.4751C17.9069 21.4967 15.874 19.6364 13.5 19.6364C11.1261 19.6364 9.09316 21.4967 6.93021 22.4751C6.31384 22.7539 5.6296 22.9091 4.90911 22.9091C2.19789 22.9091 1.99751e-05 20.7112 1.99751e-05 18ZM4.90911 26.1818C2.19789 26.1818 1.99751e-05 28.3797 1.99751e-05 31.0909C1.99751e-05 33.8021 2.19789 36 4.90911 36C7.62033 36 9.8182 33.8021 9.8182 31.0909C9.8182 28.3797 7.62033 26.1818 4.90911 26.1818Z" fill="#0083FC"/>
</svg>
