<svg xmlns="http://www.w3.org/2000/svg" viewBox="0 0 354.93 316.88"><defs><style>.a{fill:#fff;}</style></defs><path class="a" d="M354.93,161.25a39,39,0,0,0-39-39,37.45,37.45,0,0,0-26.83,10.92c-26.51-19-63.31-31.5-103.86-33.06L203,16.84,260.74,29A27.77,27.77,0,1,0,288.5,0a27,27,0,0,0-24.64,15.59L199.3,1.87a7.76,7.76,0,0,0-5.3.94,7.55,7.55,0,0,0-3.12,4.36l-19.65,93c-41.48,1.24-78.6,13.41-105.42,33.06A39.35,39.35,0,0,0,39,122.26,39,39,0,0,0,23.08,196.8a73.49,73.49,0,0,0-.94,11.85c0,59.89,69.56,108.23,155.64,108.23s155.63-48.34,155.63-108.23a69.48,69.48,0,0,0-.93-11.53,40.38,40.38,0,0,0,22.45-35.87ZM88.27,189A27.76,27.76,0,1,1,116,216.76,27.81,27.81,0,0,1,88.27,189Zm155,73.29c-19,19-55.2,20.27-65.8,20.27s-47.1-1.56-65.81-20.27A7.28,7.28,0,1,1,122,252c11.85,11.85,37.43,16.22,55.83,16.22s43.66-4.37,55.83-16.22a7.33,7.33,0,0,1,10.29,0,8,8,0,0,1-.63,10.29Zm-5-45.54A27.76,27.76,0,1,1,266,189,27.81,27.81,0,0,1,238.28,216.76Z"/></svg>