<svg viewBox="0 0 307 152" fill="none" xmlns="http://www.w3.org/2000/svg">
    <path
            d="M39.1644 68.6827C41.7404 68.6827 43.6864 69.2567 45.0024 70.4047C46.3324 71.5387 46.9974 73.2257 46.9974 75.4657V75.6967C46.9974 77.9367 46.3394 79.6237 45.0234 80.7577C43.7074 81.8917 41.7544 82.4587 39.1644 82.4587H32.2974V68.6827H39.1644ZM39.1644 79.6237C40.7464 79.6237 41.9084 79.3087 42.6504 78.6787C43.4064 78.0487 43.7844 77.0687 43.7844 75.7387V75.4447C43.7844 74.1287 43.3994 73.1487 42.6294 72.5047C41.8594 71.8467 40.6974 71.5177 39.1434 71.5177H35.4474V79.6237H39.1644ZM62.7135 79.7917V82.4587H60.9285C60.2845 82.4587 59.7245 82.3537 59.2485 82.1437C58.7865 81.9197 58.4365 81.6047 58.1985 81.1987C57.1345 82.2067 55.6225 82.7107 53.6625 82.7107C52.1785 82.7107 51.0235 82.4307 50.1975 81.8707C49.3715 81.3107 48.9585 80.5267 48.9585 79.5187C48.9585 78.6647 49.2665 77.9857 49.8825 77.4817C50.4985 76.9637 51.3945 76.6417 52.5705 76.5157L57.7575 75.9487C57.5895 74.9127 56.6515 74.3947 54.9435 74.3947C54.0475 74.3947 53.3475 74.5207 52.8435 74.7727C52.3535 75.0107 52.1085 75.3467 52.1085 75.7807V75.8437H49.0425V75.7807C49.0425 74.9547 49.2805 74.2337 49.7565 73.6177C50.2465 73.0017 50.9395 72.5257 51.8355 72.1897C52.7315 71.8537 53.7745 71.6857 54.9645 71.6857C56.8125 71.6857 58.2475 72.0987 59.2695 72.9247C60.3055 73.7507 60.8235 74.8917 60.8235 76.3477V78.9517C60.8235 79.5117 61.1455 79.7917 61.7895 79.7917H62.7135ZM53.8725 80.2747C54.7685 80.2747 55.5595 80.1417 56.2455 79.8757C56.9455 79.5957 57.4565 79.2247 57.7785 78.7627V78.0487L53.3685 78.5527C52.9065 78.6087 52.5635 78.7067 52.3395 78.8467C52.1155 78.9867 52.0035 79.1827 52.0035 79.4347C52.0035 79.9947 52.6265 80.2747 53.8725 80.2747ZM68.4204 74.6257V78.6157C68.4204 78.9937 68.5254 79.2877 68.7354 79.4977C68.9594 79.6937 69.2744 79.7917 69.6804 79.7917H72.1584V82.4587H69.2814C68.0774 82.4587 67.1254 82.1367 66.4254 81.4927C65.7254 80.8347 65.3754 79.9457 65.3754 78.8257V74.6257H61.8684V71.9377H64.6824C64.9764 71.9377 65.1794 71.8817 65.2914 71.7697C65.4034 71.6577 65.4594 71.4547 65.4594 71.1607V69.1447H68.4204V71.9377H72.7884V74.6257H68.4204ZM87.8355 79.7917V82.4587H86.0505C85.4065 82.4587 84.8465 82.3537 84.3705 82.1437C83.9085 81.9197 83.5585 81.6047 83.3205 81.1987C82.2565 82.2067 80.7445 82.7107 78.7845 82.7107C77.3005 82.7107 76.1455 82.4307 75.3195 81.8707C74.4935 81.3107 74.0805 80.5267 74.0805 79.5187C74.0805 78.6647 74.3885 77.9857 75.0045 77.4817C75.6205 76.9637 76.5165 76.6417 77.6925 76.5157L82.8795 75.9487C82.7115 74.9127 81.7735 74.3947 80.0655 74.3947C79.1695 74.3947 78.4695 74.5207 77.9655 74.7727C77.4755 75.0107 77.2305 75.3467 77.2305 75.7807V75.8437H74.1645V75.7807C74.1645 74.9547 74.4025 74.2337 74.8785 73.6177C75.3685 73.0017 76.0615 72.5257 76.9575 72.1897C77.8535 71.8537 78.8965 71.6857 80.0865 71.6857C81.9345 71.6857 83.3695 72.0987 84.3915 72.9247C85.4275 73.7507 85.9455 74.8917 85.9455 76.3477V78.9517C85.9455 79.5117 86.2675 79.7917 86.9115 79.7917H87.8355ZM78.9945 80.2747C79.8905 80.2747 80.6815 80.1417 81.3675 79.8757C82.0675 79.5957 82.5785 79.2247 82.9005 78.7627V78.0487L78.4905 78.5527C78.0285 78.6087 77.6855 78.7067 77.4615 78.8467C77.2375 78.9867 77.1255 79.1827 77.1255 79.4347C77.1255 79.9947 77.7485 80.2747 78.9945 80.2747Z"
            fill="white"/>
    <path
            d="M197.478 68.6827C199.102 68.6827 200.383 69.0747 201.321 69.8587C202.259 70.6427 202.728 71.7137 202.728 73.0717V73.3027C202.728 74.6747 202.259 75.7527 201.321 76.5367C200.383 77.3207 199.102 77.7127 197.478 77.7127H191.892V82.4587H188.742V68.6827H197.478ZM197.394 74.9197C198.08 74.9197 198.605 74.7867 198.969 74.5207C199.333 74.2407 199.515 73.8347 199.515 73.3027V73.0717C199.515 72.5537 199.333 72.1617 198.969 71.8957C198.605 71.6157 198.08 71.4757 197.394 71.4757H191.892V74.9197H197.394ZM216.642 71.9377V82.4587H213.807L213.723 81.4507C212.799 82.2627 211.616 82.6827 210.174 82.7107C208.368 82.7247 206.989 82.2627 206.037 81.3247C205.099 80.3727 204.63 78.9727 204.63 77.1247V71.9377H207.675V77.1247C207.675 78.0347 207.92 78.7347 208.41 79.2247C208.914 79.7007 209.642 79.9387 210.594 79.9387C211.252 79.9387 211.847 79.7917 212.379 79.4977C212.911 79.1897 213.317 78.7767 213.597 78.2587V71.9377H216.642ZM226.301 71.6857C227.519 71.6857 228.576 71.9097 229.472 72.3577C230.382 72.7917 231.075 73.4147 231.551 74.2267C232.041 75.0387 232.286 75.9907 232.286 77.0827V77.2927C232.286 78.3847 232.041 79.3437 231.551 80.1697C231.061 80.9817 230.368 81.6117 229.472 82.0597C228.576 82.4937 227.519 82.7107 226.301 82.7107C224.817 82.7107 223.592 82.3257 222.626 81.5557L222.542 82.4587H219.707V67.8427H222.752V72.7567C223.732 72.0427 224.915 71.6857 226.301 71.6857ZM229.136 77.0827C229.136 76.2567 228.849 75.6127 228.275 75.1507C227.701 74.6887 226.896 74.4577 225.86 74.4577C225.202 74.4577 224.593 74.5627 224.033 74.7727C223.487 74.9827 223.06 75.2697 222.752 75.6337V78.7417C223.074 79.1057 223.508 79.3997 224.054 79.6237C224.6 79.8337 225.202 79.9387 225.86 79.9387C226.896 79.9387 227.701 79.7077 228.275 79.2457C228.849 78.7837 229.136 78.1327 229.136 77.2927V77.0827ZM238.102 82.4587C236.982 82.4587 236.114 82.1927 235.498 81.6607C234.882 81.1147 234.574 80.3587 234.574 79.3927V67.8427H237.598V78.8467C237.598 79.1687 237.682 79.4067 237.85 79.5607C238.018 79.7147 238.291 79.7917 238.669 79.7917H239.572V82.4587H238.102ZM244.304 71.9377V82.4587H241.28V71.9377H244.304ZM242.792 70.7197C242.232 70.7197 241.777 70.5587 241.427 70.2367C241.077 69.9007 240.902 69.4667 240.902 68.9347C240.902 68.4027 241.077 67.9757 241.427 67.6537C241.777 67.3177 242.232 67.1497 242.792 67.1497C243.366 67.1497 243.821 67.3177 244.157 67.6537C244.507 67.9757 244.682 68.4027 244.682 68.9347C244.682 69.4667 244.507 69.9007 244.157 70.2367C243.807 70.5587 243.352 70.7197 242.792 70.7197ZM253.127 82.7107C251.153 82.7107 249.613 82.4027 248.507 81.7867C247.415 81.1567 246.869 80.2677 246.869 79.1197V79.0147H249.788V79.1197C249.788 79.5117 250.054 79.7987 250.586 79.9807C251.118 80.1487 251.979 80.2327 253.169 80.2327C255.129 80.2327 256.109 79.9527 256.109 79.3927V79.2877C256.109 79.0777 255.983 78.9167 255.731 78.8047C255.479 78.6927 255.024 78.6087 254.366 78.5527L251.657 78.2797C250.103 78.1257 248.969 77.8037 248.255 77.3137C247.541 76.8237 247.184 76.1307 247.184 75.2347V75.0247C247.184 73.9747 247.702 73.1557 248.738 72.5677C249.788 71.9797 251.244 71.6857 253.106 71.6857C255.038 71.6857 256.522 71.9937 257.558 72.6097C258.594 73.2257 259.112 74.1147 259.112 75.2767V75.4027H256.193V75.2767C256.193 74.8847 255.941 74.6047 255.437 74.4367C254.947 74.2547 254.142 74.1637 253.022 74.1637C252.112 74.1637 251.412 74.2267 250.922 74.3527C250.432 74.4787 250.187 74.6607 250.187 74.8987V75.0247C250.187 75.2347 250.299 75.3957 250.523 75.5077C250.761 75.6197 251.146 75.7037 251.678 75.7597L254.429 76.0327C256.081 76.2007 257.278 76.5297 258.02 77.0197C258.776 77.5097 259.154 78.2167 259.154 79.1407V79.3507C259.154 80.4147 258.622 81.2407 257.558 81.8287C256.494 82.4167 255.017 82.7107 253.127 82.7107ZM268.257 71.6857C270.077 71.6857 271.456 72.1617 272.394 73.1137C273.332 74.0517 273.801 75.4377 273.801 77.2717V82.4587H270.756V77.2717C270.756 76.3617 270.504 75.6687 270 75.1927C269.51 74.7027 268.789 74.4577 267.837 74.4577C267.179 74.4577 266.584 74.6117 266.052 74.9197C265.52 75.2277 265.114 75.6407 264.834 76.1587V82.4587H261.789V67.8427H264.834V72.8407C265.772 72.0707 266.913 71.6857 268.257 71.6857Z"
            fill="white"/>
    <path
            d="M64.6333 130.786L63.5727 129.726L64.6333 130.786ZM54.7338 130.786L55.7945 129.726L54.7338 130.786ZM4.05025 80.1028L2.98959 81.1635H2.98959L4.05025 80.1028ZM4.05025 70.2033L5.11091 71.264H5.11091L4.05025 70.2033ZM53.0399 21.2137L51.9792 20.153L53.0399 21.2137ZM62.9394 21.2137L64.0001 20.153L62.9394 21.2137ZM231.966 0.5C208.62 0.5 187.772 11.3306 174.024 28.1829L176.349 30.0792C189.559 13.8859 209.571 3.5 231.966 3.5V0.5ZM306.957 76C306.957 34.5971 273.395 0.5 231.966 0.5V3.5C271.712 3.5 303.957 36.227 303.957 76H306.957ZM231.966 151.5C273.395 151.5 306.957 117.403 306.957 76H303.957C303.957 115.773 271.712 148.5 231.966 148.5V151.5ZM173.302 122.918C187.036 140.283 208.207 151.5 231.966 151.5V148.5C209.176 148.5 188.853 137.744 175.655 121.057L173.302 122.918ZM65.694 131.847L94.2301 103.311L92.1088 101.19L63.5727 129.726L65.694 131.847ZM53.6732 131.847C56.9926 135.167 62.3745 135.167 65.694 131.847L63.5727 129.726C61.4248 131.874 57.9424 131.874 55.7945 129.726L53.6732 131.847ZM2.98959 81.1635L53.6732 131.847L55.7945 129.726L5.11091 79.0421L2.98959 81.1635ZM2.9896 69.1427C-0.329862 72.4621 -0.329867 77.844 2.98959 81.1635L5.11091 79.0421C2.96303 76.8943 2.96303 73.4119 5.11091 71.264L2.9896 69.1427ZM51.9792 20.153L2.98959 69.1427L5.11091 71.264L54.1006 22.2743L51.9792 20.153ZM64.0001 20.153C60.6806 16.8335 55.2987 16.8335 51.9792 20.153L54.1006 22.2743C56.2485 20.1264 59.7309 20.1264 61.8787 22.2743L64.0001 20.153ZM92.138 48.2909L64.0001 20.153L61.8787 22.2743L90.0167 50.4122L92.138 48.2909ZM90.0167 50.4122C98.667 59.0626 110.399 63.9223 122.633 63.9223V60.9223C111.195 60.9223 100.226 56.3786 92.138 48.2909L90.0167 50.4122ZM123.763 88.0779C111.891 88.0779 100.504 92.7943 92.1088 101.19L94.2301 103.311C102.063 95.4782 112.686 91.0779 123.763 91.0779V88.0779ZM175.655 121.057C162.717 104.698 145.376 88.0779 123.763 88.0779V91.0779C143.837 91.0779 160.381 106.581 173.302 122.918L175.655 121.057ZM174.024 28.1829C160.429 44.8491 143.365 60.9223 122.633 60.9223V63.9223C144.898 63.9223 162.765 46.7308 176.349 30.0792L174.024 28.1829Z"
            fill="url(#paint0_linear_1_3317)"/>
    <defs>
        <linearGradient id="paint0_linear_1_3317" x1="305.457" y1="150" x2="-11.7567" y2="109.349"
                        gradientUnits="userSpaceOnUse">
            <stop offset="0.322917" stop-color="#F19EFE"/>
            <stop offset="0.661458" stop-color="#F3B537"/>
        </linearGradient>
    </defs>
</svg>