<svg width="18" height="18" viewBox="0 0 18 18" fill="none" xmlns="http://www.w3.org/2000/svg">
<path fill-rule="evenodd" clip-rule="evenodd" d="M18 16.5932L12.8809 11.4741C13.7868 10.2746 14.324 8.78103 14.324 7.162C14.324 3.20654 11.1175 0 7.162 0C3.20654 0 0 3.20654 0 7.162C0 11.1175 3.20654 14.324 7.162 14.324C8.78103 14.324 10.2746 13.7868 11.4741 12.8809L16.5932 18L18 16.5932ZM12.3346 7.162C12.3346 10.0187 10.0187 12.3346 7.162 12.3346C4.30527 12.3346 1.98944 10.0187 1.98944 7.162C1.98944 4.30528 4.30527 1.98945 7.162 1.98945C10.0187 1.98945 12.3346 4.30528 12.3346 7.162Z" fill="#FFFFFF"/>
</svg>
