<svg width="18" height="19" viewBox="0 0 18 19" fill="none" xmlns="http://www.w3.org/2000/svg">
<path fill-rule="evenodd" clip-rule="evenodd" d="M18 16.8713L12.8809 11.7522C13.7868 10.5526 14.324 9.05905 14.324 7.44002C14.324 3.48455 11.1175 0.278015 7.162 0.278015C3.20654 0.278015 0 3.48455 0 7.44002C0 11.3955 3.20654 14.602 7.162 14.602C8.78103 14.602 10.2746 14.0648 11.4741 13.1589L16.5932 18.278L18 16.8713ZM12.3346 7.44002C12.3346 10.2967 10.0187 12.6126 7.162 12.6126C4.30527 12.6126 1.98944 10.2967 1.98944 7.44002C1.98944 4.58329 4.30527 2.26746 7.162 2.26746C10.0187 2.26746 12.3346 4.58329 12.3346 7.44002Z" fill="#8EA1B8"/>
<path fill-rule="evenodd" clip-rule="evenodd" d="M18 16.8713L12.8809 11.7522C13.7868 10.5526 14.324 9.05905 14.324 7.44002C14.324 3.48455 11.1175 0.278015 7.162 0.278015C3.20654 0.278015 0 3.48455 0 7.44002C0 11.3955 3.20654 14.602 7.162 14.602C8.78103 14.602 10.2746 14.0648 11.4741 13.1589L16.5932 18.278L18 16.8713ZM12.3346 7.44002C12.3346 10.2967 10.0187 12.6126 7.162 12.6126C4.30527 12.6126 1.98944 10.2967 1.98944 7.44002C1.98944 4.58329 4.30527 2.26746 7.162 2.26746C10.0187 2.26746 12.3346 4.58329 12.3346 7.44002Z" fill="black" fill-opacity="0.2"/>
</svg>
