<svg width="16" height="13" viewBox="0 0 16 13" fill="none" xmlns="http://www.w3.org/2000/svg">
<path d="M14.3712 3.18701C14.3712 3.3292 14.3712 3.47139 14.3712 3.59326C14.3712 7.79795 11.1618 12.6526 5.31182 12.6526C3.504 12.6526 1.83838 12.1245 0.416504 11.2308C0.660254 11.2511 0.924316 11.2714 1.16807 11.2714C2.65088 11.2714 4.03213 10.7636 5.129 9.91045C3.72744 9.89014 2.54932 8.95576 2.16338 7.69639C2.3665 7.73701 2.54932 7.75732 2.77275 7.75732C3.05713 7.75732 3.3415 7.7167 3.60557 7.63545C2.14307 7.35107 1.04619 6.07139 1.04619 4.52764C1.04619 4.50732 1.04619 4.50732 1.04619 4.48701C1.47275 4.73076 1.96025 4.87295 2.48838 4.89326C1.63525 4.32451 1.0665 3.34951 1.0665 2.23232C1.0665 1.64326 1.229 1.09482 1.49307 0.627637C3.05713 2.55732 5.41338 3.8167 8.054 3.95889C7.99307 3.73545 7.97275 3.47139 7.97275 3.22764C7.97275 1.46045 9.39463 0.0385742 11.1618 0.0385742C12.0759 0.0385742 12.9087 0.424512 13.4774 1.03389C14.2087 0.891699 14.879 0.627637 15.5087 0.262012C15.2649 1.01357 14.7571 1.62295 14.1071 2.0292C14.7571 1.94795 15.3665 1.78545 15.9353 1.52139C15.529 2.17139 15.0009 2.74014 14.3712 3.18701Z" fill="white"/>
</svg>
