<svg width="18" height="12" viewBox="0 0 18 12" fill="none" xmlns="http://www.w3.org/2000/svg">
<path fill-rule="evenodd" clip-rule="evenodd" d="M15.3581 0.655639C16.0541 0.843035 16.6029 1.39184 16.7903 2.08788C17.1383 3.3595 17.1249 6.00982 17.1249 6.00982C17.1249 6.00982 17.1249 8.64675 16.7903 9.91837C16.6029 10.6144 16.0541 11.1632 15.3581 11.3506C14.0864 11.6852 8.99997 11.6852 8.99997 11.6852C8.99997 11.6852 3.92688 11.6852 2.64188 11.3372C1.94584 11.1498 1.39703 10.601 1.20964 9.90498C0.875 8.64675 0.875 5.99643 0.875 5.99643C0.875 5.99643 0.875 3.3595 1.20964 2.08788C1.39703 1.39184 1.95922 0.82965 2.64188 0.642253C3.9135 0.307617 8.99997 0.307617 8.99997 0.307617C8.99997 0.307617 14.0864 0.307617 15.3581 0.655639ZM11.6103 5.99635L7.38045 8.4325V3.56019L11.6103 5.99635Z" fill="white"/>
</svg>
